<svg width="100" height="100" viewBox="0 0 100 100" fill="none" xmlns="http://www.w3.org/2000/svg">
    <path d="M34.0767 78.692C34.3807 78.74 34.6567 78.864 34.9047 79.064C35.1607 79.264 35.3607 79.512 35.5047 79.808C35.6567 80.104 35.7327 80.42 35.7327 80.756C35.7327 81.18 35.6247 81.564 35.4087 81.908C35.1927 82.244 34.8767 82.512 34.4607 82.712C34.0527 82.904 33.5687 83 33.0087 83H29.8887V74.636H32.8887C33.4567 74.636 33.9407 74.732 34.3407 74.924C34.7407 75.108 35.0407 75.36 35.2407 75.68C35.4407 76 35.5407 76.36 35.5407 76.76C35.5407 77.256 35.4047 77.668 35.1327 77.996C34.8687 78.316 34.5167 78.548 34.0767 78.692ZM30.9807 78.248H32.8167C33.3287 78.248 33.7247 78.128 34.0047 77.888C34.2847 77.648 34.4247 77.316 34.4247 76.892C34.4247 76.468 34.2847 76.136 34.0047 75.896C33.7247 75.656 33.3207 75.536 32.7927 75.536H30.9807V78.248ZM32.9127 82.1C33.4567 82.1 33.8807 81.972 34.1847 81.716C34.4887 81.46 34.6407 81.104 34.6407 80.648C34.6407 80.184 34.4807 79.82 34.1607 79.556C33.8407 79.284 33.4127 79.148 32.8767 79.148H30.9807V82.1H32.9127ZM43.3184 79.46C43.3184 79.668 43.3064 79.888 43.2824 80.12H38.0264C38.0664 80.768 38.2864 81.276 38.6864 81.644C39.0944 82.004 39.5864 82.184 40.1624 82.184C40.6344 82.184 41.0264 82.076 41.3384 81.86C41.6584 81.636 41.8824 81.34 42.0104 80.972H43.1864C43.0104 81.604 42.6584 82.12 42.1304 82.52C41.6024 82.912 40.9464 83.108 40.1624 83.108C39.5384 83.108 38.9784 82.968 38.4824 82.688C37.9944 82.408 37.6104 82.012 37.3304 81.5C37.0504 80.98 36.9104 80.38 36.9104 79.7C36.9104 79.02 37.0464 78.424 37.3184 77.912C37.5904 77.4 37.9704 77.008 38.4584 76.736C38.9544 76.456 39.5224 76.316 40.1624 76.316C40.7864 76.316 41.3384 76.452 41.8184 76.724C42.2984 76.996 42.6664 77.372 42.9224 77.852C43.1864 78.324 43.3184 78.86 43.3184 79.46ZM42.1904 79.232C42.1904 78.816 42.0984 78.46 41.9144 78.164C41.7304 77.86 41.4784 77.632 41.1584 77.48C40.8464 77.32 40.4984 77.24 40.1144 77.24C39.5624 77.24 39.0904 77.416 38.6984 77.768C38.3144 78.12 38.0944 78.608 38.0384 79.232H42.1904ZM44.4222 79.688C44.4222 79.016 44.5582 78.428 44.8302 77.924C45.1022 77.412 45.4742 77.016 45.9462 76.736C46.4262 76.456 46.9582 76.316 47.5422 76.316C48.1182 76.316 48.6182 76.44 49.0422 76.688C49.4662 76.936 49.7822 77.248 49.9902 77.624V76.424H51.0942V83H49.9902V81.776C49.7742 82.16 49.4502 82.48 49.0182 82.736C48.5942 82.984 48.0982 83.108 47.5302 83.108C46.9462 83.108 46.4182 82.964 45.9462 82.676C45.4742 82.388 45.1022 81.984 44.8302 81.464C44.5582 80.944 44.4222 80.352 44.4222 79.688ZM49.9902 79.7C49.9902 79.204 49.8902 78.772 49.6902 78.404C49.4902 78.036 49.2182 77.756 48.8742 77.564C48.5382 77.364 48.1662 77.264 47.7582 77.264C47.3502 77.264 46.9782 77.36 46.6422 77.552C46.3062 77.744 46.0382 78.024 45.8382 78.392C45.6382 78.76 45.5382 79.192 45.5382 79.688C45.5382 80.192 45.6382 80.632 45.8382 81.008C46.0382 81.376 46.3062 81.66 46.6422 81.86C46.9782 82.052 47.3502 82.148 47.7582 82.148C48.1662 82.148 48.5382 82.052 48.8742 81.86C49.2182 81.66 49.4902 81.376 49.6902 81.008C49.8902 80.632 49.9902 80.196 49.9902 79.7ZM58.842 76.424V83H57.75V82.028C57.542 82.364 57.25 82.628 56.874 82.82C56.506 83.004 56.098 83.096 55.65 83.096C55.138 83.096 54.678 82.992 54.27 82.784C53.862 82.568 53.538 82.248 53.298 81.824C53.066 81.4 52.95 80.884 52.95 80.276V76.424H54.03V80.132C54.03 80.78 54.194 81.28 54.522 81.632C54.85 81.976 55.298 82.148 55.866 82.148C56.45 82.148 56.91 81.968 57.246 81.608C57.582 81.248 57.75 80.724 57.75 80.036V76.424H58.842ZM62.0881 77.324V81.2C62.0881 81.52 62.1561 81.748 62.2921 81.884C62.4281 82.012 62.6641 82.076 63.0001 82.076H63.8041V83H62.8201C62.2121 83 61.7561 82.86 61.4521 82.58C61.1481 82.3 60.9961 81.84 60.9961 81.2V77.324H60.1441V76.424H60.9961V74.768H62.0881V76.424H63.8041V77.324H62.0881ZM70.8616 76.424L66.9016 86.096H65.7736L67.0696 82.928L64.4176 76.424H65.6296L67.6936 81.752L69.7336 76.424H70.8616Z" fill="#055EB0"/>
    <path d="M50 53.25C52.5 53.25 56.6337 53.2218 61.389 50.4763C66.1443 47.7309 67.6831 44.2916 68.1755 42.5308C68.2197 42.3716 68.2318 42.2053 68.2109 42.0414C68.1901 41.8775 68.1368 41.7194 68.0543 41.5764C67.9717 41.4333 67.8614 41.3081 67.7299 41.2082C67.5984 41.1082 67.4483 41.0354 67.2883 40.9941C66.1349 40.6985 64.1431 40.4312 61.5806 41.0391" stroke="#055EB0" stroke-width="2" stroke-linecap="round" stroke-linejoin="round"/>
    <path d="M38.4192 41.039C35.8569 40.4313 33.8652 40.6985 32.7118 40.9941C32.5519 41.0354 32.4018 41.1082 32.2703 41.2082C32.1388 41.3081 32.0285 41.4333 31.9459 41.5764C31.8633 41.7194 31.81 41.8775 31.7892 42.0414C31.7684 42.2053 31.7804 42.3716 31.8246 42.5308C32.317 44.2916 33.8558 47.7309 38.6111 50.4763C43.3664 53.2218 47.5001 53.25 50.0001 53.25" stroke="#055EB0" stroke-width="2" stroke-linecap="round" stroke-linejoin="round"/>
    <path d="M50 53.25C50 53.25 56.25 49.8409 56.25 40.75C56.25 33.6274 52.4135 29.9926 50.7521 28.7525C50.535 28.59 50.2712 28.5022 50 28.5022C49.7288 28.5022 49.465 28.59 49.2479 28.7525C47.5865 29.9926 43.75 33.6274 43.75 40.75C43.75 49.8409 50 53.25 50 53.25Z" stroke="#055EB0" stroke-width="2" stroke-linecap="round" stroke-linejoin="round"/>
    <path d="M50 53.2501C51.8735 52.8516 56.9266 50.0029 59.9551 44.7573C62.9837 39.5117 62.2377 35.323 61.6461 33.5013C61.5509 33.2073 61.3501 32.9591 61.0825 32.8046C60.8149 32.6501 60.4995 32.6003 60.1974 32.6649C58.4059 33.071 56.7304 33.8797 55.2979 35.0297" stroke="#055EB0" stroke-width="2" stroke-linecap="round" stroke-linejoin="round"/>
    <path d="M44.7019 35.0297C43.2695 33.8797 41.594 33.071 39.8026 32.6649C39.5004 32.6003 39.185 32.6501 38.9174 32.8046C38.6499 32.9591 38.449 33.2073 38.3538 33.5013C37.7622 35.323 37.0162 39.5117 40.0448 44.7573C43.0734 50.0029 48.1265 52.8516 49.9999 53.2501" stroke="#055EB0" stroke-width="2" stroke-linecap="round" stroke-linejoin="round"/>
    <path d="M8 1H92V-1H8V1ZM99 8V92H101V8H99ZM92 99H8V101H92V99ZM1 92V8H-1V92H1ZM8 99C4.13401 99 1 95.866 1 92H-1C-1 96.9706 3.02944 101 8 101V99ZM99 92C99 95.866 95.866 99 92 99V101C96.9706 101 101 96.9706 101 92H99ZM92 1C95.866 1 99 4.13401 99 8H101C101 3.02944 96.9706 -1 92 -1V1ZM8 -1C3.02944 -1 -1 3.02944 -1 8H1C1 4.13401 4.13401 1 8 1V-1Z" fill="#055EB0"/>
</svg>
