<svg width="100" height="100" viewBox="0 0 100 100" fill="none" xmlns="http://www.w3.org/2000/svg">
    <path d="M36.8479 78.812C36.8479 77.996 37.0319 77.264 37.3999 76.616C37.7679 75.96 38.2679 75.448 38.8999 75.08C39.5399 74.712 40.2479 74.528 41.0239 74.528C41.9359 74.528 42.7319 74.748 43.4119 75.188C44.0919 75.628 44.5879 76.252 44.8999 77.06H43.5919C43.3599 76.556 43.0239 76.168 42.5839 75.896C42.1519 75.624 41.6319 75.488 41.0239 75.488C40.4399 75.488 39.9159 75.624 39.4519 75.896C38.9879 76.168 38.6239 76.556 38.3599 77.06C38.0959 77.556 37.9639 78.14 37.9639 78.812C37.9639 79.476 38.0959 80.06 38.3599 80.564C38.6239 81.06 38.9879 81.444 39.4519 81.716C39.9159 81.988 40.4399 82.124 41.0239 82.124C41.6319 82.124 42.1519 81.992 42.5839 81.728C43.0239 81.456 43.3599 81.068 43.5919 80.564H44.8999C44.5879 81.364 44.0919 81.984 43.4119 82.424C42.7319 82.856 41.9359 83.072 41.0239 83.072C40.2479 83.072 39.5399 82.892 38.8999 82.532C38.2679 82.164 37.7679 81.656 37.3999 81.008C37.0319 80.36 36.8479 79.628 36.8479 78.812ZM46.1878 79.688C46.1878 79.016 46.3238 78.428 46.5958 77.924C46.8678 77.412 47.2398 77.016 47.7118 76.736C48.1918 76.456 48.7238 76.316 49.3078 76.316C49.8838 76.316 50.3838 76.44 50.8078 76.688C51.2318 76.936 51.5478 77.248 51.7558 77.624V76.424H52.8598V83H51.7558V81.776C51.5398 82.16 51.2158 82.48 50.7838 82.736C50.3598 82.984 49.8638 83.108 49.2958 83.108C48.7118 83.108 48.1838 82.964 47.7118 82.676C47.2398 82.388 46.8678 81.984 46.5958 81.464C46.3238 80.944 46.1878 80.352 46.1878 79.688ZM51.7558 79.7C51.7558 79.204 51.6558 78.772 51.4558 78.404C51.2558 78.036 50.9838 77.756 50.6398 77.564C50.3038 77.364 49.9318 77.264 49.5238 77.264C49.1158 77.264 48.7438 77.36 48.4078 77.552C48.0718 77.744 47.8038 78.024 47.6038 78.392C47.4038 78.76 47.3038 79.192 47.3038 79.688C47.3038 80.192 47.4038 80.632 47.6038 81.008C47.8038 81.376 48.0718 81.66 48.4078 81.86C48.7438 82.052 49.1158 82.148 49.5238 82.148C49.9318 82.148 50.3038 82.052 50.6398 81.86C50.9838 81.66 51.2558 81.376 51.4558 81.008C51.6558 80.632 51.7558 80.196 51.7558 79.7ZM55.8676 77.492C56.0596 77.116 56.3316 76.824 56.6836 76.616C57.0436 76.408 57.4796 76.304 57.9916 76.304V77.432H57.7036C56.4796 77.432 55.8676 78.096 55.8676 79.424V83H54.7756V76.424H55.8676V77.492ZM61.6505 83.108C61.1465 83.108 60.6945 83.024 60.2945 82.856C59.8945 82.68 59.5785 82.44 59.3465 82.136C59.1145 81.824 58.9865 81.468 58.9625 81.068H60.0905C60.1225 81.396 60.2745 81.664 60.5465 81.872C60.8265 82.08 61.1905 82.184 61.6385 82.184C62.0545 82.184 62.3825 82.092 62.6225 81.908C62.8625 81.724 62.9825 81.492 62.9825 81.212C62.9825 80.924 62.8545 80.712 62.5985 80.576C62.3425 80.432 61.9465 80.292 61.4105 80.156C60.9225 80.028 60.5225 79.9 60.2105 79.772C59.9065 79.636 59.6425 79.44 59.4185 79.184C59.2025 78.92 59.0945 78.576 59.0945 78.152C59.0945 77.816 59.1945 77.508 59.3945 77.228C59.5945 76.948 59.8785 76.728 60.2465 76.568C60.6145 76.4 61.0345 76.316 61.5065 76.316C62.2345 76.316 62.8225 76.5 63.2705 76.868C63.7185 77.236 63.9585 77.74 63.9905 78.38H62.8985C62.8745 78.036 62.7345 77.76 62.4785 77.552C62.2305 77.344 61.8945 77.24 61.4705 77.24C61.0785 77.24 60.7665 77.324 60.5345 77.492C60.3025 77.66 60.1865 77.88 60.1865 78.152C60.1865 78.368 60.2545 78.548 60.3905 78.692C60.5345 78.828 60.7105 78.94 60.9185 79.028C61.1345 79.108 61.4305 79.2 61.8065 79.304C62.2785 79.432 62.6625 79.56 62.9585 79.688C63.2545 79.808 63.5065 79.992 63.7145 80.24C63.9305 80.488 64.0425 80.812 64.0505 81.212C64.0505 81.572 63.9505 81.896 63.7505 82.184C63.5505 82.472 63.2665 82.7 62.8985 82.868C62.5385 83.028 62.1225 83.108 61.6505 83.108Z" fill="#055EB0"/>
    <path d="M32.5 40.75H67.5" stroke="#055EB0" stroke-width="2" stroke-linecap="round" stroke-linejoin="round"/>
    <path d="M65 50.75V54.5C65 54.8315 64.8683 55.1495 64.6339 55.3839C64.3995 55.6183 64.0815 55.75 63.75 55.75H60C59.6685 55.75 59.3505 55.6183 59.1161 55.3839C58.8817 55.1495 58.75 54.8315 58.75 54.5V50.75" stroke="#055EB0" stroke-width="2" stroke-linecap="round" stroke-linejoin="round"/>
    <path d="M41.25 50.75V54.5C41.25 54.8315 41.1183 55.1495 40.8839 55.3839C40.6495 55.6183 40.3315 55.75 40 55.75H36.25C35.9185 55.75 35.6005 55.6183 35.3661 55.3839C35.1317 55.1495 35 54.8315 35 54.5V50.75" stroke="#055EB0" stroke-width="2" stroke-linecap="round" stroke-linejoin="round"/>
    <path d="M40 45.75H42.5" stroke="#055EB0" stroke-width="2" stroke-linecap="round" stroke-linejoin="round"/>
    <path d="M57.5 45.75H60" stroke="#055EB0" stroke-width="2" stroke-linecap="round" stroke-linejoin="round"/>
    <path d="M65 40.75L60.3299 30.2423C60.2317 30.0214 60.0715 29.8336 59.8688 29.7019C59.6661 29.5701 59.4295 29.5 59.1877 29.5H40.8123C40.5705 29.5 40.3339 29.5701 40.1312 29.7019C39.9285 29.8336 39.7683 30.0214 39.6701 30.2423L35 40.75V50.75H65V40.75Z" stroke="#055EB0" stroke-width="2" stroke-linecap="round" stroke-linejoin="round"/>
    <path d="M8 1H92V-1H8V1ZM99 8V92H101V8H99ZM92 99H8V101H92V99ZM1 92V8H-1V92H1ZM8 99C4.13401 99 1 95.866 1 92H-1C-1 96.9706 3.02944 101 8 101V99ZM99 92C99 95.866 95.866 99 92 99V101C96.9706 101 101 96.9706 101 92H99ZM92 1C95.866 1 99 4.13401 99 8H101C101 3.02944 96.9706 -1 92 -1V1ZM8 -1C3.02944 -1 -1 3.02944 -1 8H1C1 4.13401 4.13401 1 8 1V-1Z" fill="#055EB0"/>
</svg>
