<svg width="100" height="100" viewBox="0 0 100 100" fill="none" xmlns="http://www.w3.org/2000/svg">
    <path d="M32.7377 74.636V75.524H29.1017V78.344H32.0537V79.232H29.1017V83H28.0097V74.636H32.7377ZM33.719 79.688C33.719 79.016 33.855 78.428 34.127 77.924C34.399 77.412 34.771 77.016 35.243 76.736C35.723 76.456 36.255 76.316 36.839 76.316C37.415 76.316 37.915 76.44 38.339 76.688C38.763 76.936 39.079 77.248 39.287 77.624V76.424H40.391V83H39.287V81.776C39.071 82.16 38.747 82.48 38.315 82.736C37.891 82.984 37.395 83.108 36.827 83.108C36.243 83.108 35.715 82.964 35.243 82.676C34.771 82.388 34.399 81.984 34.127 81.464C33.855 80.944 33.719 80.352 33.719 79.688ZM39.287 79.7C39.287 79.204 39.187 78.772 38.987 78.404C38.787 78.036 38.515 77.756 38.171 77.564C37.835 77.364 37.463 77.264 37.055 77.264C36.647 77.264 36.275 77.36 35.939 77.552C35.603 77.744 35.335 78.024 35.135 78.392C34.935 78.76 34.835 79.192 34.835 79.688C34.835 80.192 34.935 80.632 35.135 81.008C35.335 81.376 35.603 81.66 35.939 81.86C36.275 82.052 36.647 82.148 37.055 82.148C37.463 82.148 37.835 82.052 38.171 81.86C38.515 81.66 38.787 81.376 38.987 81.008C39.187 80.632 39.287 80.196 39.287 79.7ZM44.6347 83.108C44.1307 83.108 43.6787 83.024 43.2787 82.856C42.8787 82.68 42.5627 82.44 42.3307 82.136C42.0987 81.824 41.9707 81.468 41.9467 81.068H43.0747C43.1067 81.396 43.2587 81.664 43.5307 81.872C43.8107 82.08 44.1747 82.184 44.6227 82.184C45.0387 82.184 45.3667 82.092 45.6067 81.908C45.8467 81.724 45.9667 81.492 45.9667 81.212C45.9667 80.924 45.8387 80.712 45.5827 80.576C45.3267 80.432 44.9307 80.292 44.3947 80.156C43.9067 80.028 43.5067 79.9 43.1947 79.772C42.8907 79.636 42.6267 79.44 42.4027 79.184C42.1867 78.92 42.0787 78.576 42.0787 78.152C42.0787 77.816 42.1787 77.508 42.3787 77.228C42.5787 76.948 42.8627 76.728 43.2307 76.568C43.5987 76.4 44.0187 76.316 44.4907 76.316C45.2187 76.316 45.8067 76.5 46.2547 76.868C46.7027 77.236 46.9427 77.74 46.9747 78.38H45.8827C45.8587 78.036 45.7187 77.76 45.4627 77.552C45.2147 77.344 44.8787 77.24 44.4547 77.24C44.0627 77.24 43.7507 77.324 43.5187 77.492C43.2867 77.66 43.1707 77.88 43.1707 78.152C43.1707 78.368 43.2387 78.548 43.3747 78.692C43.5187 78.828 43.6947 78.94 43.9027 79.028C44.1187 79.108 44.4147 79.2 44.7907 79.304C45.2627 79.432 45.6467 79.56 45.9427 79.688C46.2387 79.808 46.4907 79.992 46.6987 80.24C46.9147 80.488 47.0267 80.812 47.0347 81.212C47.0347 81.572 46.9347 81.896 46.7347 82.184C46.5347 82.472 46.2507 82.7 45.8827 82.868C45.5227 83.028 45.1067 83.108 44.6347 83.108ZM51.9107 76.304C52.4067 76.304 52.8547 76.412 53.2547 76.628C53.6547 76.836 53.9667 77.152 54.1907 77.576C54.4227 78 54.5387 78.516 54.5387 79.124V83H53.4587V79.28C53.4587 78.624 53.2947 78.124 52.9667 77.78C52.6387 77.428 52.1907 77.252 51.6227 77.252C51.0467 77.252 50.5867 77.432 50.2427 77.792C49.9067 78.152 49.7387 78.676 49.7387 79.364V83H48.6467V74.12H49.7387V77.36C49.9547 77.024 50.2507 76.764 50.6267 76.58C51.0107 76.396 51.4387 76.304 51.9107 76.304ZM56.9568 75.356C56.7488 75.356 56.5728 75.284 56.4288 75.14C56.2848 74.996 56.2128 74.82 56.2128 74.612C56.2128 74.404 56.2848 74.228 56.4288 74.084C56.5728 73.94 56.7488 73.868 56.9568 73.868C57.1568 73.868 57.3248 73.94 57.4608 74.084C57.6048 74.228 57.6768 74.404 57.6768 74.612C57.6768 74.82 57.6048 74.996 57.4608 75.14C57.3248 75.284 57.1568 75.356 56.9568 75.356ZM57.4848 76.424V83H56.3928V76.424H57.4848ZM62.2843 83.108C61.6683 83.108 61.1083 82.968 60.6043 82.688C60.1083 82.408 59.7163 82.012 59.4283 81.5C59.1483 80.98 59.0083 80.38 59.0083 79.7C59.0083 79.028 59.1523 78.436 59.4403 77.924C59.7363 77.404 60.1363 77.008 60.6403 76.736C61.1443 76.456 61.7083 76.316 62.3323 76.316C62.9563 76.316 63.5203 76.456 64.0243 76.736C64.5283 77.008 64.9243 77.4 65.2123 77.912C65.5083 78.424 65.6563 79.02 65.6563 79.7C65.6563 80.38 65.5043 80.98 65.2003 81.5C64.9043 82.012 64.5003 82.408 63.9883 82.688C63.4763 82.968 62.9083 83.108 62.2843 83.108ZM62.2843 82.148C62.6763 82.148 63.0443 82.056 63.3883 81.872C63.7323 81.688 64.0083 81.412 64.2163 81.044C64.4323 80.676 64.5403 80.228 64.5403 79.7C64.5403 79.172 64.4363 78.724 64.2283 78.356C64.0203 77.988 63.7483 77.716 63.4123 77.54C63.0763 77.356 62.7123 77.264 62.3203 77.264C61.9203 77.264 61.5523 77.356 61.2163 77.54C60.8883 77.716 60.6243 77.988 60.4243 78.356C60.2243 78.724 60.1243 79.172 60.1243 79.7C60.1243 80.236 60.2203 80.688 60.4123 81.056C60.6123 81.424 60.8763 81.7 61.2043 81.884C61.5323 82.06 61.8923 82.148 62.2843 82.148ZM70.3665 76.304C71.1665 76.304 71.8145 76.548 72.3105 77.036C72.8065 77.516 73.0545 78.212 73.0545 79.124V83H71.9745V79.28C71.9745 78.624 71.8105 78.124 71.4825 77.78C71.1545 77.428 70.7065 77.252 70.1385 77.252C69.5625 77.252 69.1025 77.432 68.7585 77.792C68.4225 78.152 68.2545 78.676 68.2545 79.364V83H67.1625V76.424H68.2545V77.36C68.4705 77.024 68.7625 76.764 69.1305 76.58C69.5065 76.396 69.9185 76.304 70.3665 76.304Z" fill="#055EB0"/>
    <path d="M60 40.75H64.2275C64.4596 40.75 64.6872 40.6854 64.8846 40.5633C65.0821 40.4413 65.2417 40.2666 65.3455 40.059L68.2212 34.3076C68.3641 34.0219 68.3921 33.6922 68.2995 33.3864C68.2069 33.0806 68.0007 32.8218 67.7233 32.6633L60 28.25" stroke="#055EB0" stroke-width="2" stroke-linecap="round" stroke-linejoin="round"/>
    <path d="M40.0001 40.75H35.7727C35.5405 40.75 35.313 40.6854 35.1155 40.5633C34.918 40.4413 34.7584 40.2666 34.6546 40.059L31.7789 34.3076C31.636 34.0219 31.608 33.6922 31.7006 33.3864C31.7932 33.0806 31.9994 32.8218 32.2768 32.6633L40.0001 28.25" stroke="#055EB0" stroke-width="2" stroke-linecap="round" stroke-linejoin="round"/>
    <path d="M55 28.25C55 29.5761 54.4732 30.8479 53.5355 31.7855C52.5979 32.7232 51.3261 33.25 50 33.25C48.6739 33.25 47.4021 32.7232 46.4645 31.7855C45.5268 30.8479 45 29.5761 45 28.25H40V54.5C40 54.8315 40.1317 55.1495 40.3661 55.3839C40.6005 55.6183 40.9185 55.75 41.25 55.75H58.75C59.0815 55.75 59.3995 55.6183 59.6339 55.3839C59.8683 55.1495 60 54.8315 60 54.5V28.25H55Z" stroke="#055EB0" stroke-width="2" stroke-linecap="round" stroke-linejoin="round"/>
    <path d="M8 1H92V-1H8V1ZM99 8V92H101V8H99ZM92 99H8V101H92V99ZM1 92V8H-1V92H1ZM8 99C4.13401 99 1 95.866 1 92H-1C-1 96.9706 3.02944 101 8 101V99ZM99 92C99 95.866 95.866 99 92 99V101C96.9706 101 101 96.9706 101 92H99ZM92 1C95.866 1 99 4.13401 99 8H101C101 3.02944 96.9706 -1 92 -1V1ZM8 -1C3.02944 -1 -1 3.02944 -1 8H1C1 4.13401 4.13401 1 8 1V-1Z" fill="#055EB0"/>
</svg>
