<svg width="174" height="197" viewBox="0 0 174 197" fill="none" xmlns="http://www.w3.org/2000/svg">
    <rect x="7" width="160" height="160" rx="80" fill="white"/>
    <path d="M48.3501 108.45C52.741 99.61 55.0176 89.8705 55.0001 80C55.0043 75.2009 56.0845 70.4638 58.1612 66.1373C60.2379 61.8108 63.2583 58.005 67.0001 55" stroke="#055EB0" stroke-width="7.375" stroke-linecap="round" stroke-linejoin="round"/>
    <path d="M87 80C87.0217 96.2686 82.8914 112.274 75 126.5" stroke="#055EB0" stroke-width="7.375" stroke-linecap="round" stroke-linejoin="round"/>
    <path d="M71 80C71 75.7565 72.6857 71.6869 75.6863 68.6863C78.6869 65.6857 82.7565 64 87 64C91.2435 64 95.3131 65.6857 98.3137 68.6863C101.314 71.6869 103 75.7565 103 80C103.033 96.4932 99.3951 112.787 92.35 127.7" stroke="#055EB0" stroke-width="7.375" stroke-linecap="round" stroke-linejoin="round"/>
    <path d="M132.3 108C134.091 98.7742 134.995 89.3981 135 80C135 67.2696 129.943 55.0606 120.941 46.0589C111.939 37.0571 99.7304 32 87 32C74.2696 32 62.0606 37.0571 53.0589 46.0589C44.0571 55.0606 39 67.2696 39 80C39.0143 85.4521 38.0839 90.8655 36.25 96" stroke="#055EB0" stroke-width="7.375" stroke-linecap="round" stroke-linejoin="round"/>
    <path d="M69.4001 96C67.673 104.413 64.6181 112.497 60.3501 119.95" stroke="#055EB0" stroke-width="7.375" stroke-linecap="round" stroke-linejoin="round"/>
    <path d="M83 48.25C84.3275 48.0904 85.663 48.007 87 48C95.4869 48 103.626 51.3714 109.627 57.3726C115.629 63.3737 119 71.5131 119 80C118.995 85.3488 118.661 90.6922 118 96" stroke="#055EB0" stroke-width="7.375" stroke-linecap="round" stroke-linejoin="round"/>
    <path d="M114.95 112C114.2 114.95 113.35 117.9 112.4 120.75" stroke="#055EB0" stroke-width="7.375" stroke-linecap="round" stroke-linejoin="round"/>
    <path d="M7.08314 189.012H3.00914L2.30914 191H0.643137L4.12914 181.256H5.97714L9.46314 191H7.78314L7.08314 189.012ZM6.63514 187.71L5.05314 183.188L3.45714 187.71H6.63514ZM10.5172 187.136C10.5172 186.343 10.6759 185.647 10.9932 185.05C11.3199 184.443 11.7679 183.977 12.3372 183.65C12.9066 183.323 13.5599 183.16 14.2972 183.16C15.2306 183.16 16.0006 183.384 16.6072 183.832C17.2232 184.271 17.6386 184.901 17.8532 185.722H16.1312C15.9912 185.339 15.7672 185.041 15.4592 184.826C15.1512 184.611 14.7639 184.504 14.2972 184.504C13.6439 184.504 13.1212 184.737 12.7292 185.204C12.3466 185.661 12.1552 186.305 12.1552 187.136C12.1552 187.967 12.3466 188.615 12.7292 189.082C13.1212 189.549 13.6439 189.782 14.2972 189.782C15.2212 189.782 15.8326 189.376 16.1312 188.564H17.8532C17.6292 189.348 17.2092 189.973 16.5932 190.44C15.9772 190.897 15.2119 191.126 14.2972 191.126C13.5599 191.126 12.9066 190.963 12.3372 190.636C11.7679 190.3 11.3199 189.833 10.9932 189.236C10.6759 188.629 10.5172 187.929 10.5172 187.136ZM21.3762 184.588V188.858C21.3762 189.147 21.4415 189.357 21.5722 189.488C21.7122 189.609 21.9455 189.67 22.2722 189.67H23.2522V191H21.9922C21.2735 191 20.7228 190.832 20.3402 190.496C19.9575 190.16 19.7662 189.614 19.7662 188.858V184.588H18.8562V183.286H19.7662V181.368H21.3762V183.286H23.2522V184.588H21.3762ZM25.6055 182.264C25.3162 182.264 25.0735 182.166 24.8775 181.97C24.6815 181.774 24.5835 181.531 24.5835 181.242C24.5835 180.953 24.6815 180.71 24.8775 180.514C25.0735 180.318 25.3162 180.22 25.6055 180.22C25.8855 180.22 26.1235 180.318 26.3195 180.514C26.5155 180.71 26.6135 180.953 26.6135 181.242C26.6135 181.531 26.5155 181.774 26.3195 181.97C26.1235 182.166 25.8855 182.264 25.6055 182.264ZM26.3895 183.286V191H24.7935V183.286H26.3895ZM31.5373 189.572L33.7213 183.286H35.4153L32.4753 191H30.5713L27.6453 183.286H29.3533L31.5373 189.572ZM36.1601 187.108C36.1601 186.333 36.3188 185.647 36.6361 185.05C36.9628 184.453 37.4014 183.991 37.9521 183.664C38.5121 183.328 39.1281 183.16 39.8001 183.16C40.4068 183.16 40.9341 183.281 41.3821 183.524C41.8394 183.757 42.2034 184.051 42.4741 184.406V183.286H44.0841V191H42.4741V189.852C42.2034 190.216 41.8348 190.519 41.3681 190.762C40.9014 191.005 40.3694 191.126 39.7721 191.126C39.1094 191.126 38.5028 190.958 37.9521 190.622C37.4014 190.277 36.9628 189.801 36.6361 189.194C36.3188 188.578 36.1601 187.883 36.1601 187.108ZM42.4741 187.136C42.4741 186.604 42.3621 186.142 42.1381 185.75C41.9234 185.358 41.6388 185.059 41.2841 184.854C40.9294 184.649 40.5468 184.546 40.1361 184.546C39.7254 184.546 39.3428 184.649 38.9881 184.854C38.6334 185.05 38.3441 185.344 38.1201 185.736C37.9054 186.119 37.7981 186.576 37.7981 187.108C37.7981 187.64 37.9054 188.107 38.1201 188.508C38.3441 188.909 38.6334 189.217 38.9881 189.432C39.3521 189.637 39.7348 189.74 40.1361 189.74C40.5468 189.74 40.9294 189.637 41.2841 189.432C41.6388 189.227 41.9234 188.928 42.1381 188.536C42.3621 188.135 42.4741 187.668 42.4741 187.136ZM48.1128 184.588V188.858C48.1128 189.147 48.1781 189.357 48.3088 189.488C48.4488 189.609 48.6821 189.67 49.0088 189.67H49.9888V191H48.7288C48.0101 191 47.4594 190.832 47.0768 190.496C46.6941 190.16 46.5028 189.614 46.5028 188.858V184.588H45.5928V183.286H46.5028V181.368H48.1128V183.286H49.9888V184.588H48.1128ZM58.6001 186.954C58.6001 187.243 58.5815 187.505 58.5441 187.738H52.6501C52.6968 188.354 52.9255 188.849 53.3361 189.222C53.7468 189.595 54.2508 189.782 54.8481 189.782C55.7068 189.782 56.3135 189.423 56.6681 188.704H58.3901C58.1568 189.413 57.7321 189.997 57.1161 190.454C56.5095 190.902 55.7535 191.126 54.8481 191.126C54.1108 191.126 53.4481 190.963 52.8601 190.636C52.2815 190.3 51.8241 189.833 51.4881 189.236C51.1615 188.629 50.9981 187.929 50.9981 187.136C50.9981 186.343 51.1568 185.647 51.4741 185.05C51.8008 184.443 52.2535 183.977 52.8321 183.65C53.4201 183.323 54.0921 183.16 54.8481 183.16C55.5761 183.16 56.2248 183.319 56.7941 183.636C57.3635 183.953 57.8068 184.401 58.1241 184.98C58.4415 185.549 58.6001 186.207 58.6001 186.954ZM56.9341 186.45C56.9248 185.862 56.7148 185.391 56.3041 185.036C55.8935 184.681 55.3848 184.504 54.7781 184.504C54.2275 184.504 53.7561 184.681 53.3641 185.036C52.9721 185.381 52.7388 185.853 52.6641 186.45H56.9341ZM70.8923 183.286L66.1603 194.626H64.5083L66.0763 190.874L63.0383 183.286H64.8163L66.9863 189.166L69.2403 183.286H70.8923ZM75.5131 191.126C74.7851 191.126 74.1271 190.963 73.5391 190.636C72.9511 190.3 72.4891 189.833 72.1531 189.236C71.8171 188.629 71.6491 187.929 71.6491 187.136C71.6491 186.352 71.8217 185.657 72.1671 185.05C72.5124 184.443 72.9837 183.977 73.5811 183.65C74.1784 183.323 74.8457 183.16 75.5831 183.16C76.3204 183.16 76.9877 183.323 77.5851 183.65C78.1824 183.977 78.6537 184.443 78.9991 185.05C79.3444 185.657 79.5171 186.352 79.5171 187.136C79.5171 187.92 79.3397 188.615 78.9851 189.222C78.6304 189.829 78.1451 190.3 77.5291 190.636C76.9224 190.963 76.2504 191.126 75.5131 191.126ZM75.5131 189.74C75.9237 189.74 76.3064 189.642 76.6611 189.446C77.0251 189.25 77.3191 188.956 77.5431 188.564C77.7671 188.172 77.8791 187.696 77.8791 187.136C77.8791 186.576 77.7717 186.105 77.5571 185.722C77.3424 185.33 77.0577 185.036 76.7031 184.84C76.3484 184.644 75.9657 184.546 75.5551 184.546C75.1444 184.546 74.7617 184.644 74.4071 184.84C74.0617 185.036 73.7864 185.33 73.5811 185.722C73.3757 186.105 73.2731 186.576 73.2731 187.136C73.2731 187.967 73.4831 188.611 73.9031 189.068C74.3324 189.516 74.8691 189.74 75.5131 189.74ZM88.1512 183.286V191H86.5552V190.09C86.3032 190.407 85.9719 190.659 85.5612 190.846C85.1599 191.023 84.7305 191.112 84.2732 191.112C83.6665 191.112 83.1205 190.986 82.6352 190.734C82.1592 190.482 81.7812 190.109 81.5012 189.614C81.2305 189.119 81.0952 188.522 81.0952 187.822V183.286H82.6772V187.584C82.6772 188.275 82.8499 188.807 83.1952 189.18C83.5405 189.544 84.0119 189.726 84.6092 189.726C85.2065 189.726 85.6779 189.544 86.0232 189.18C86.3779 188.807 86.5552 188.275 86.5552 187.584V183.286H88.1512ZM91.9234 184.406C92.1567 184.014 92.4647 183.711 92.8474 183.496C93.2394 183.272 93.7014 183.16 94.2334 183.16V184.812H93.8274C93.202 184.812 92.726 184.971 92.3994 185.288C92.082 185.605 91.9234 186.156 91.9234 186.94V191H90.3274V183.286H91.9234V184.406ZM104.686 186.002C105.209 186.095 105.652 186.371 106.016 186.828C106.38 187.285 106.562 187.803 106.562 188.382C106.562 188.877 106.431 189.325 106.17 189.726C105.918 190.118 105.549 190.431 105.064 190.664C104.579 190.888 104.014 191 103.37 191H99.4779V181.27H103.188C103.851 181.27 104.42 181.382 104.896 181.606C105.372 181.83 105.731 182.133 105.974 182.516C106.217 182.889 106.338 183.309 106.338 183.776C106.338 184.336 106.189 184.803 105.89 185.176C105.591 185.549 105.19 185.825 104.686 186.002ZM101.074 185.358H103.048C103.571 185.358 103.977 185.241 104.266 185.008C104.565 184.765 104.714 184.42 104.714 183.972C104.714 183.533 104.565 183.193 104.266 182.95C103.977 182.698 103.571 182.572 103.048 182.572H101.074V185.358ZM103.23 189.698C103.771 189.698 104.196 189.567 104.504 189.306C104.812 189.045 104.966 188.681 104.966 188.214C104.966 187.738 104.803 187.36 104.476 187.08C104.149 186.8 103.715 186.66 103.174 186.66H101.074V189.698H103.23ZM109.179 182.264C108.889 182.264 108.647 182.166 108.451 181.97C108.255 181.774 108.157 181.531 108.157 181.242C108.157 180.953 108.255 180.71 108.451 180.514C108.647 180.318 108.889 180.22 109.179 180.22C109.459 180.22 109.697 180.318 109.893 180.514C110.089 180.71 110.187 180.953 110.187 181.242C110.187 181.531 110.089 181.774 109.893 181.97C109.697 182.166 109.459 182.264 109.179 182.264ZM109.963 183.286V191H108.367V183.286H109.963ZM115.474 191.126C114.746 191.126 114.088 190.963 113.5 190.636C112.912 190.3 112.45 189.833 112.114 189.236C111.778 188.629 111.61 187.929 111.61 187.136C111.61 186.352 111.783 185.657 112.128 185.05C112.474 184.443 112.945 183.977 113.542 183.65C114.14 183.323 114.807 183.16 115.544 183.16C116.282 183.16 116.949 183.323 117.546 183.65C118.144 183.977 118.615 184.443 118.96 185.05C119.306 185.657 119.478 186.352 119.478 187.136C119.478 187.92 119.301 188.615 118.946 189.222C118.592 189.829 118.106 190.3 117.49 190.636C116.884 190.963 116.212 191.126 115.474 191.126ZM115.474 189.74C115.885 189.74 116.268 189.642 116.622 189.446C116.986 189.25 117.28 188.956 117.504 188.564C117.728 188.172 117.84 187.696 117.84 187.136C117.84 186.576 117.733 186.105 117.518 185.722C117.304 185.33 117.019 185.036 116.664 184.84C116.31 184.644 115.927 184.546 115.516 184.546C115.106 184.546 114.723 184.644 114.368 184.84C114.023 185.036 113.748 185.33 113.542 185.722C113.337 186.105 113.234 186.576 113.234 187.136C113.234 187.967 113.444 188.611 113.864 189.068C114.294 189.516 114.83 189.74 115.474 189.74ZM130.465 183.16C131.071 183.16 131.613 183.286 132.089 183.538C132.574 183.79 132.952 184.163 133.223 184.658C133.503 185.153 133.643 185.75 133.643 186.45V191H132.061V186.688C132.061 185.997 131.888 185.47 131.543 185.106C131.197 184.733 130.726 184.546 130.129 184.546C129.531 184.546 129.055 184.733 128.701 185.106C128.355 185.47 128.183 185.997 128.183 186.688V191H126.601V186.688C126.601 185.997 126.428 185.47 126.083 185.106C125.737 184.733 125.266 184.546 124.669 184.546C124.071 184.546 123.595 184.733 123.241 185.106C122.895 185.47 122.723 185.997 122.723 186.688V191H121.127V183.286H122.723V184.168C122.984 183.851 123.315 183.603 123.717 183.426C124.118 183.249 124.547 183.16 125.005 183.16C125.621 183.16 126.171 183.291 126.657 183.552C127.142 183.813 127.515 184.191 127.777 184.686C128.01 184.219 128.374 183.851 128.869 183.58C129.363 183.3 129.895 183.16 130.465 183.16ZM142.814 186.954C142.814 187.243 142.795 187.505 142.758 187.738H136.864C136.91 188.354 137.139 188.849 137.55 189.222C137.96 189.595 138.464 189.782 139.062 189.782C139.92 189.782 140.527 189.423 140.882 188.704H142.604C142.37 189.413 141.946 189.997 141.33 190.454C140.723 190.902 139.967 191.126 139.062 191.126C138.324 191.126 137.662 190.963 137.074 190.636C136.495 190.3 136.038 189.833 135.702 189.236C135.375 188.629 135.212 187.929 135.212 187.136C135.212 186.343 135.37 185.647 135.688 185.05C136.014 184.443 136.467 183.977 137.046 183.65C137.634 183.323 138.306 183.16 139.062 183.16C139.79 183.16 140.438 183.319 141.008 183.636C141.577 183.953 142.02 184.401 142.338 184.98C142.655 185.549 142.814 186.207 142.814 186.954ZM141.148 186.45C141.138 185.862 140.928 185.391 140.518 185.036C140.107 184.681 139.598 184.504 138.992 184.504C138.441 184.504 137.97 184.681 137.578 185.036C137.186 185.381 136.952 185.853 136.878 186.45H141.148ZM146.317 184.588V188.858C146.317 189.147 146.382 189.357 146.513 189.488C146.653 189.609 146.886 189.67 147.213 189.67H148.193V191H146.933C146.214 191 145.664 190.832 145.281 190.496C144.898 190.16 144.707 189.614 144.707 188.858V184.588H143.797V183.286H144.707V181.368H146.317V183.286H148.193V184.588H146.317ZM151.33 184.406C151.564 184.014 151.872 183.711 152.254 183.496C152.646 183.272 153.108 183.16 153.64 183.16V184.812H153.234C152.609 184.812 152.133 184.971 151.806 185.288C151.489 185.605 151.33 186.156 151.33 186.94V191H149.734V183.286H151.33V184.406ZM155.99 182.264C155.7 182.264 155.458 182.166 155.262 181.97C155.066 181.774 154.968 181.531 154.968 181.242C154.968 180.953 155.066 180.71 155.262 180.514C155.458 180.318 155.7 180.22 155.99 180.22C156.27 180.22 156.508 180.318 156.704 180.514C156.9 180.71 156.998 180.953 156.998 181.242C156.998 181.531 156.9 181.774 156.704 181.97C156.508 182.166 156.27 182.264 155.99 182.264ZM156.774 183.286V191H155.178V183.286H156.774ZM158.407 187.136C158.407 186.343 158.566 185.647 158.883 185.05C159.21 184.443 159.658 183.977 160.227 183.65C160.797 183.323 161.45 183.16 162.187 183.16C163.121 183.16 163.891 183.384 164.497 183.832C165.113 184.271 165.529 184.901 165.743 185.722H164.021C163.881 185.339 163.657 185.041 163.349 184.826C163.041 184.611 162.654 184.504 162.187 184.504C161.534 184.504 161.011 184.737 160.619 185.204C160.237 185.661 160.045 186.305 160.045 187.136C160.045 187.967 160.237 188.615 160.619 189.082C161.011 189.549 161.534 189.782 162.187 189.782C163.111 189.782 163.723 189.376 164.021 188.564H165.743C165.519 189.348 165.099 189.973 164.483 190.44C163.867 190.897 163.102 191.126 162.187 191.126C161.45 191.126 160.797 190.963 160.227 190.636C159.658 190.3 159.21 189.833 158.883 189.236C158.566 188.629 158.407 187.929 158.407 187.136ZM170.204 191.126C169.598 191.126 169.052 191.019 168.566 190.804C168.09 190.58 167.712 190.281 167.432 189.908C167.152 189.525 167.003 189.101 166.984 188.634H168.636C168.664 188.961 168.818 189.236 169.098 189.46C169.388 189.675 169.747 189.782 170.176 189.782C170.624 189.782 170.97 189.698 171.212 189.53C171.464 189.353 171.59 189.129 171.59 188.858C171.59 188.569 171.45 188.354 171.17 188.214C170.9 188.074 170.466 187.92 169.868 187.752C169.29 187.593 168.818 187.439 168.454 187.29C168.09 187.141 167.773 186.912 167.502 186.604C167.241 186.296 167.11 185.89 167.11 185.386C167.11 184.975 167.232 184.602 167.474 184.266C167.717 183.921 168.062 183.65 168.51 183.454C168.968 183.258 169.49 183.16 170.078 183.16C170.956 183.16 171.66 183.384 172.192 183.832C172.734 184.271 173.023 184.873 173.06 185.638H171.464C171.436 185.293 171.296 185.017 171.044 184.812C170.792 184.607 170.452 184.504 170.022 184.504C169.602 184.504 169.28 184.583 169.056 184.742C168.832 184.901 168.72 185.111 168.72 185.372C168.72 185.577 168.795 185.75 168.944 185.89C169.094 186.03 169.276 186.142 169.49 186.226C169.705 186.301 170.022 186.399 170.442 186.52C171.002 186.669 171.46 186.823 171.814 186.982C172.178 187.131 172.491 187.355 172.752 187.654C173.014 187.953 173.149 188.349 173.158 188.844C173.158 189.283 173.037 189.675 172.794 190.02C172.552 190.365 172.206 190.636 171.758 190.832C171.32 191.028 170.802 191.126 170.204 191.126Z" fill="white"/>
</svg>
