<svg width="102" height="84" viewBox="0 0 102 84" fill="none" xmlns="http://www.w3.org/2000/svg">
    <path d="M23.3696 68.2273C27.4175 60.0779 29.5162 51.0993 29.5001 42C29.504 37.5758 30.4998 33.2088 32.4142 29.2203C34.3287 25.2319 37.1131 21.7234 40.5626 18.9531" stroke="#EBF2F9" stroke-opacity="0.3" stroke-width="7.375" stroke-linecap="round" stroke-linejoin="round"/>
    <path d="M59 42C59.02 56.9976 55.2124 71.7522 47.9375 84.8672" stroke="#EBF2F9" stroke-opacity="0.3" stroke-width="7.375" stroke-linecap="round" stroke-linejoin="round"/>
    <path d="M44.25 42C44.25 38.0881 45.804 34.3363 48.5702 31.5702C51.3363 28.804 55.0881 27.25 59 27.25C62.9119 27.25 66.6637 28.804 69.4298 31.5702C72.196 34.3363 73.75 38.0881 73.75 42C73.7804 57.2047 70.4267 72.2256 63.932 85.9734" stroke="#EBF2F9" stroke-opacity="0.3" stroke-width="7.375" stroke-linecap="round" stroke-linejoin="round"/>
    <path d="M100.761 67.8125C102.412 59.3074 103.246 50.6639 103.25 42C103.25 30.2642 98.588 19.009 90.2895 10.7105C81.991 2.41204 70.7358 -2.25 59 -2.25C47.2642 -2.25 36.009 2.41204 27.7105 10.7105C19.412 19.009 14.75 30.2642 14.75 42C14.7632 47.0262 13.9055 52.0167 12.2148 56.75" stroke="#EBF2F9" stroke-opacity="0.3" stroke-width="7.375" stroke-linecap="round" stroke-linejoin="round"/>
    <path d="M42.7751 56.75C41.1829 64.5056 38.3667 71.9584 34.4321 78.8289" stroke="#EBF2F9" stroke-opacity="0.3" stroke-width="7.375" stroke-linecap="round" stroke-linejoin="round"/>
    <path d="M55.3125 12.7305C56.5363 12.5834 57.7674 12.5064 59 12.5C66.8239 12.5 74.3273 15.608 79.8597 21.1403C85.392 26.6727 88.5 34.1761 88.5 42C88.4957 46.9309 88.1879 51.8569 87.5781 56.75" stroke="#EBF2F9" stroke-opacity="0.3" stroke-width="7.375" stroke-linecap="round" stroke-linejoin="round"/>
    <path d="M84.7663 71.5C84.0749 74.2195 83.2913 76.9391 82.4155 79.5664" stroke="#EBF2F9" stroke-opacity="0.3" stroke-width="7.375" stroke-linecap="round" stroke-linejoin="round"/>
</svg>
