<svg width="100" height="100" viewBox="0 0 100 100" fill="none" xmlns="http://www.w3.org/2000/svg">
    <path d="M34.9272 74.636V75.524H31.2912V78.344H34.2432V79.232H31.2912V83H30.1992V74.636H34.9272ZM36.8804 75.356C36.6724 75.356 36.4964 75.284 36.3524 75.14C36.2084 74.996 36.1364 74.82 36.1364 74.612C36.1364 74.404 36.2084 74.228 36.3524 74.084C36.4964 73.94 36.6724 73.868 36.8804 73.868C37.0804 73.868 37.2484 73.94 37.3844 74.084C37.5284 74.228 37.6004 74.404 37.6004 74.612C37.6004 74.82 37.5284 74.996 37.3844 75.14C37.2484 75.284 37.0804 75.356 36.8804 75.356ZM37.4084 76.424V83H36.3164V76.424H37.4084ZM40.6719 77.324V81.2C40.6719 81.52 40.7399 81.748 40.8759 81.884C41.0119 82.012 41.2479 82.076 41.5839 82.076H42.3879V83H41.4039C40.7959 83 40.3399 82.86 40.0359 82.58C39.7319 82.3 39.5799 81.84 39.5799 81.2V77.324H38.7279V76.424H39.5799V74.768H40.6719V76.424H42.3879V77.324H40.6719ZM46.9854 76.304C47.7854 76.304 48.4334 76.548 48.9294 77.036C49.4254 77.516 49.6734 78.212 49.6734 79.124V83H48.5934V79.28C48.5934 78.624 48.4294 78.124 48.1014 77.78C47.7734 77.428 47.3254 77.252 46.7574 77.252C46.1814 77.252 45.7214 77.432 45.3774 77.792C45.0414 78.152 44.8734 78.676 44.8734 79.364V83H43.7814V76.424H44.8734V77.36C45.0894 77.024 45.3814 76.764 45.7494 76.58C46.1254 76.396 46.5374 76.304 46.9854 76.304ZM57.5276 79.46C57.5276 79.668 57.5156 79.888 57.4916 80.12H52.2356C52.2756 80.768 52.4956 81.276 52.8956 81.644C53.3036 82.004 53.7956 82.184 54.3716 82.184C54.8436 82.184 55.2356 82.076 55.5476 81.86C55.8676 81.636 56.0916 81.34 56.2196 80.972H57.3956C57.2196 81.604 56.8676 82.12 56.3396 82.52C55.8116 82.912 55.1556 83.108 54.3716 83.108C53.7476 83.108 53.1876 82.968 52.6916 82.688C52.2036 82.408 51.8196 82.012 51.5396 81.5C51.2596 80.98 51.1196 80.38 51.1196 79.7C51.1196 79.02 51.2556 78.424 51.5276 77.912C51.7996 77.4 52.1796 77.008 52.6676 76.736C53.1636 76.456 53.7316 76.316 54.3716 76.316C54.9956 76.316 55.5476 76.452 56.0276 76.724C56.5076 76.996 56.8756 77.372 57.1316 77.852C57.3956 78.324 57.5276 78.86 57.5276 79.46ZM56.3996 79.232C56.3996 78.816 56.3076 78.46 56.1236 78.164C55.9396 77.86 55.6876 77.632 55.3676 77.48C55.0556 77.32 54.7076 77.24 54.3236 77.24C53.7716 77.24 53.2996 77.416 52.9076 77.768C52.5236 78.12 52.3036 78.608 52.2476 79.232H56.3996ZM61.3674 83.108C60.8634 83.108 60.4114 83.024 60.0114 82.856C59.6114 82.68 59.2954 82.44 59.0634 82.136C58.8314 81.824 58.7034 81.468 58.6794 81.068H59.8074C59.8394 81.396 59.9914 81.664 60.2634 81.872C60.5434 82.08 60.9074 82.184 61.3554 82.184C61.7714 82.184 62.0994 82.092 62.3394 81.908C62.5794 81.724 62.6994 81.492 62.6994 81.212C62.6994 80.924 62.5714 80.712 62.3154 80.576C62.0594 80.432 61.6634 80.292 61.1274 80.156C60.6394 80.028 60.2394 79.9 59.9274 79.772C59.6234 79.636 59.3594 79.44 59.1354 79.184C58.9194 78.92 58.8114 78.576 58.8114 78.152C58.8114 77.816 58.9114 77.508 59.1114 77.228C59.3114 76.948 59.5954 76.728 59.9634 76.568C60.3314 76.4 60.7514 76.316 61.2234 76.316C61.9514 76.316 62.5394 76.5 62.9874 76.868C63.4354 77.236 63.6754 77.74 63.7074 78.38H62.6154C62.5914 78.036 62.4514 77.76 62.1954 77.552C61.9474 77.344 61.6114 77.24 61.1874 77.24C60.7954 77.24 60.4834 77.324 60.2514 77.492C60.0194 77.66 59.9034 77.88 59.9034 78.152C59.9034 78.368 59.9714 78.548 60.1074 78.692C60.2514 78.828 60.4274 78.94 60.6354 79.028C60.8514 79.108 61.1474 79.2 61.5234 79.304C61.9954 79.432 62.3794 79.56 62.6754 79.688C62.9714 79.808 63.2234 79.992 63.4314 80.24C63.6474 80.488 63.7594 80.812 63.7674 81.212C63.7674 81.572 63.6674 81.896 63.4674 82.184C63.2674 82.472 62.9834 82.7 62.6154 82.868C62.2554 83.028 61.8394 83.108 61.3674 83.108ZM67.7073 83.108C67.2033 83.108 66.7513 83.024 66.3513 82.856C65.9513 82.68 65.6353 82.44 65.4033 82.136C65.1713 81.824 65.0433 81.468 65.0193 81.068H66.1473C66.1793 81.396 66.3313 81.664 66.6033 81.872C66.8833 82.08 67.2473 82.184 67.6953 82.184C68.1113 82.184 68.4393 82.092 68.6793 81.908C68.9193 81.724 69.0393 81.492 69.0393 81.212C69.0393 80.924 68.9113 80.712 68.6553 80.576C68.3993 80.432 68.0033 80.292 67.4673 80.156C66.9793 80.028 66.5793 79.9 66.2673 79.772C65.9633 79.636 65.6993 79.44 65.4753 79.184C65.2593 78.92 65.1513 78.576 65.1513 78.152C65.1513 77.816 65.2513 77.508 65.4513 77.228C65.6513 76.948 65.9353 76.728 66.3033 76.568C66.6713 76.4 67.0913 76.316 67.5633 76.316C68.2913 76.316 68.8793 76.5 69.3273 76.868C69.7753 77.236 70.0153 77.74 70.0473 78.38H68.9553C68.9313 78.036 68.7913 77.76 68.5353 77.552C68.2873 77.344 67.9513 77.24 67.5273 77.24C67.1353 77.24 66.8233 77.324 66.5913 77.492C66.3593 77.66 66.2433 77.88 66.2433 78.152C66.2433 78.368 66.3113 78.548 66.4473 78.692C66.5913 78.828 66.7673 78.94 66.9753 79.028C67.1913 79.108 67.4873 79.2 67.8633 79.304C68.3353 79.432 68.7193 79.56 69.0153 79.688C69.3113 79.808 69.5633 79.992 69.7713 80.24C69.9873 80.488 70.0993 80.812 70.1073 81.212C70.1073 81.572 70.0073 81.896 69.8073 82.184C69.6073 82.472 69.3233 82.7 68.9553 82.868C68.5953 83.028 68.1793 83.108 67.7073 83.108Z" fill="#055EB0"/>
    <path d="M43.75 30.75H40C39.3096 30.75 38.75 31.3096 38.75 32V52C38.75 52.6904 39.3096 53.25 40 53.25H43.75C44.4404 53.25 45 52.6904 45 52V32C45 31.3096 44.4404 30.75 43.75 30.75Z" stroke="#055EB0" stroke-width="2" stroke-linecap="round" stroke-linejoin="round"/>
    <path d="M60 30.75H56.25C55.5596 30.75 55 31.3096 55 32V52C55 52.6904 55.5596 53.25 56.25 53.25H60C60.6904 53.25 61.25 52.6904 61.25 52V32C61.25 31.3096 60.6904 30.75 60 30.75Z" stroke="#055EB0" stroke-width="2" stroke-linecap="round" stroke-linejoin="round"/>
    <path d="M61.25 34.5H65C65.3315 34.5 65.6495 34.6317 65.8839 34.8661C66.1183 35.1005 66.25 35.4185 66.25 35.75V48.25C66.25 48.5815 66.1183 48.8995 65.8839 49.1339C65.6495 49.3683 65.3315 49.5 65 49.5H61.25" stroke="#055EB0" stroke-width="2" stroke-linecap="round" stroke-linejoin="round"/>
    <path d="M38.75 49.5H35C34.6685 49.5 34.3505 49.3683 34.1161 49.1339C33.8817 48.8995 33.75 48.5815 33.75 48.25V35.75C33.75 35.4185 33.8817 35.1005 34.1161 34.8661C34.3505 34.6317 34.6685 34.5 35 34.5H38.75" stroke="#055EB0" stroke-width="2" stroke-linecap="round" stroke-linejoin="round"/>
    <path d="M45 42H55" stroke="#055EB0" stroke-width="2" stroke-linecap="round" stroke-linejoin="round"/>
    <path d="M66.25 42H68.75" stroke="#055EB0" stroke-width="2" stroke-linecap="round" stroke-linejoin="round"/>
    <path d="M31.25 42H33.75" stroke="#055EB0" stroke-width="2" stroke-linecap="round" stroke-linejoin="round"/>
    <path d="M8 1H92V-1H8V1ZM99 8V92H101V8H99ZM92 99H8V101H92V99ZM1 92V8H-1V92H1ZM8 99C4.13401 99 1 95.866 1 92H-1C-1 96.9706 3.02944 101 8 101V99ZM99 92C99 95.866 95.866 99 92 99V101C96.9706 101 101 96.9706 101 92H99ZM92 1C95.866 1 99 4.13401 99 8H101C101 3.02944 96.9706 -1 92 -1V1ZM8 -1C3.02944 -1 -1 3.02944 -1 8H1C1 4.13401 4.13401 1 8 1V-1Z" fill="#055EB0"/>
</svg>
