<svg width="100" height="100" viewBox="0 0 100 100" fill="none" xmlns="http://www.w3.org/2000/svg">
    <path d="M40.7925 74.636V75.524H37.1565V78.344H40.1085V79.232H37.1565V83H36.0645V74.636H40.7925ZM45.0498 83.108C44.4338 83.108 43.8738 82.968 43.3698 82.688C42.8738 82.408 42.4818 82.012 42.1938 81.5C41.9138 80.98 41.7738 80.38 41.7738 79.7C41.7738 79.028 41.9178 78.436 42.2058 77.924C42.5018 77.404 42.9018 77.008 43.4058 76.736C43.9098 76.456 44.4738 76.316 45.0978 76.316C45.7218 76.316 46.2858 76.456 46.7898 76.736C47.2938 77.008 47.6898 77.4 47.9778 77.912C48.2738 78.424 48.4218 79.02 48.4218 79.7C48.4218 80.38 48.2698 80.98 47.9658 81.5C47.6698 82.012 47.2658 82.408 46.7538 82.688C46.2418 82.968 45.6738 83.108 45.0498 83.108ZM45.0498 82.148C45.4418 82.148 45.8098 82.056 46.1538 81.872C46.4978 81.688 46.7738 81.412 46.9818 81.044C47.1978 80.676 47.3058 80.228 47.3058 79.7C47.3058 79.172 47.2018 78.724 46.9938 78.356C46.7858 77.988 46.5138 77.716 46.1778 77.54C45.8418 77.356 45.4778 77.264 45.0858 77.264C44.6858 77.264 44.3178 77.356 43.9818 77.54C43.6538 77.716 43.3898 77.988 43.1898 78.356C42.9898 78.724 42.8898 79.172 42.8898 79.7C42.8898 80.236 42.9858 80.688 43.1778 81.056C43.3778 81.424 43.6418 81.7 43.9698 81.884C44.2978 82.06 44.6578 82.148 45.0498 82.148ZM52.7959 83.108C52.1799 83.108 51.6199 82.968 51.1159 82.688C50.6199 82.408 50.2279 82.012 49.9399 81.5C49.6599 80.98 49.5199 80.38 49.5199 79.7C49.5199 79.028 49.6639 78.436 49.9519 77.924C50.2479 77.404 50.6479 77.008 51.1519 76.736C51.6559 76.456 52.2199 76.316 52.8439 76.316C53.4679 76.316 54.0319 76.456 54.5359 76.736C55.0399 77.008 55.4359 77.4 55.7239 77.912C56.0199 78.424 56.1679 79.02 56.1679 79.7C56.1679 80.38 56.0159 80.98 55.7119 81.5C55.4159 82.012 55.0119 82.408 54.4999 82.688C53.9879 82.968 53.4199 83.108 52.7959 83.108ZM52.7959 82.148C53.1879 82.148 53.5559 82.056 53.8999 81.872C54.2439 81.688 54.5199 81.412 54.7279 81.044C54.9439 80.676 55.0519 80.228 55.0519 79.7C55.0519 79.172 54.9479 78.724 54.7399 78.356C54.5319 77.988 54.2599 77.716 53.9239 77.54C53.5879 77.356 53.2239 77.264 52.8319 77.264C52.4319 77.264 52.0639 77.356 51.7279 77.54C51.3999 77.716 51.1359 77.988 50.9359 78.356C50.7359 78.724 50.6359 79.172 50.6359 79.7C50.6359 80.236 50.7319 80.688 50.9239 81.056C51.1239 81.424 51.3879 81.7 51.7159 81.884C52.0439 82.06 52.4039 82.148 52.7959 82.148ZM57.2661 79.688C57.2661 79.016 57.4021 78.428 57.6741 77.924C57.9461 77.412 58.3181 77.016 58.7901 76.736C59.2701 76.456 59.8061 76.316 60.3981 76.316C60.9101 76.316 61.3861 76.436 61.8261 76.676C62.2661 76.908 62.6021 77.216 62.8341 77.6V74.12H63.9381V83H62.8341V81.764C62.6181 82.156 62.2981 82.48 61.8741 82.736C61.4501 82.984 60.9541 83.108 60.3861 83.108C59.8021 83.108 59.2701 82.964 58.7901 82.676C58.3181 82.388 57.9461 81.984 57.6741 81.464C57.4021 80.944 57.2661 80.352 57.2661 79.688ZM62.8341 79.7C62.8341 79.204 62.7341 78.772 62.5341 78.404C62.3341 78.036 62.0621 77.756 61.7181 77.564C61.3821 77.364 61.0101 77.264 60.6021 77.264C60.1941 77.264 59.8221 77.36 59.4861 77.552C59.1501 77.744 58.8821 78.024 58.6821 78.392C58.4821 78.76 58.3821 79.192 58.3821 79.688C58.3821 80.192 58.4821 80.632 58.6821 81.008C58.8821 81.376 59.1501 81.66 59.4861 81.86C59.8221 82.052 60.1941 82.148 60.6021 82.148C61.0101 82.148 61.3821 82.052 61.7181 81.86C62.0621 81.66 62.3341 81.376 62.5341 81.008C62.7341 80.632 62.8341 80.196 62.8341 79.7Z" fill="#055EB0"/>
    <path d="M43.125 27V33.25" stroke="#055EB0" stroke-width="2" stroke-linecap="round" stroke-linejoin="round"/>
    <path d="M43.125 40.125V57" stroke="#055EB0" stroke-width="2" stroke-linecap="round" stroke-linejoin="round"/>
    <path d="M47.5 27L48.75 34.5C48.75 35.9918 48.1574 37.4226 47.1025 38.4775C46.0476 39.5324 44.6168 40.125 43.125 40.125C41.6332 40.125 40.2024 39.5324 39.1475 38.4775C38.0926 37.4226 37.5 35.9918 37.5 34.5L38.75 27" stroke="#055EB0" stroke-width="2" stroke-linecap="round" stroke-linejoin="round"/>
    <path d="M61.875 47H53.125C53.125 47 55 29.5 61.875 27V57" stroke="#055EB0" stroke-width="2" stroke-linecap="round" stroke-linejoin="round"/>
    <path d="M8 1H92V-1H8V1ZM99 8V92H101V8H99ZM92 99H8V101H92V99ZM1 92V8H-1V92H1ZM8 99C4.13401 99 1 95.866 1 92H-1C-1 96.9706 3.02944 101 8 101V99ZM99 92C99 95.866 95.866 99 92 99V101C96.9706 101 101 96.9706 101 92H99ZM92 1C95.866 1 99 4.13401 99 8H101C101 3.02944 96.9706 -1 92 -1V1ZM8 -1C3.02944 -1 -1 3.02944 -1 8H1C1 4.13401 4.13401 1 8 1V-1Z" fill="#055EB0"/>
</svg>
