<svg width="100" height="100" viewBox="0 0 100 100" fill="none" xmlns="http://www.w3.org/2000/svg">
    <path d="M37.7624 74.636V83H36.6704V79.208H32.4104V83H31.3184V74.636H32.4104V78.308H36.6704V74.636H37.7624ZM45.6973 79.46C45.6973 79.668 45.6853 79.888 45.6613 80.12H40.4053C40.4453 80.768 40.6653 81.276 41.0653 81.644C41.4733 82.004 41.9653 82.184 42.5413 82.184C43.0133 82.184 43.4053 82.076 43.7173 81.86C44.0373 81.636 44.2613 81.34 44.3893 80.972H45.5653C45.3893 81.604 45.0373 82.12 44.5093 82.52C43.9813 82.912 43.3253 83.108 42.5413 83.108C41.9173 83.108 41.3573 82.968 40.8613 82.688C40.3733 82.408 39.9893 82.012 39.7093 81.5C39.4293 80.98 39.2893 80.38 39.2893 79.7C39.2893 79.02 39.4253 78.424 39.6973 77.912C39.9693 77.4 40.3493 77.008 40.8373 76.736C41.3333 76.456 41.9013 76.316 42.5413 76.316C43.1653 76.316 43.7173 76.452 44.1973 76.724C44.6773 76.996 45.0453 77.372 45.3013 77.852C45.5653 78.324 45.6973 78.86 45.6973 79.46ZM44.5693 79.232C44.5693 78.816 44.4773 78.46 44.2933 78.164C44.1093 77.86 43.8573 77.632 43.5373 77.48C43.2253 77.32 42.8773 77.24 42.4933 77.24C41.9413 77.24 41.4693 77.416 41.0773 77.768C40.6933 78.12 40.4733 78.608 40.4173 79.232H44.5693ZM46.8011 79.688C46.8011 79.016 46.9371 78.428 47.2091 77.924C47.4811 77.412 47.8531 77.016 48.3251 76.736C48.8051 76.456 49.3371 76.316 49.9211 76.316C50.4971 76.316 50.9971 76.44 51.4211 76.688C51.8451 76.936 52.1611 77.248 52.3691 77.624V76.424H53.4731V83H52.3691V81.776C52.1531 82.16 51.8291 82.48 51.3971 82.736C50.9731 82.984 50.4771 83.108 49.9091 83.108C49.3251 83.108 48.7971 82.964 48.3251 82.676C47.8531 82.388 47.4811 81.984 47.2091 81.464C46.9371 80.944 46.8011 80.352 46.8011 79.688ZM52.3691 79.7C52.3691 79.204 52.2691 78.772 52.0691 78.404C51.8691 78.036 51.5971 77.756 51.2531 77.564C50.9171 77.364 50.5451 77.264 50.1371 77.264C49.7291 77.264 49.3571 77.36 49.0211 77.552C48.6851 77.744 48.4171 78.024 48.2171 78.392C48.0171 78.76 47.9171 79.192 47.9171 79.688C47.9171 80.192 48.0171 80.632 48.2171 81.008C48.4171 81.376 48.6851 81.66 49.0211 81.86C49.3571 82.052 49.7291 82.148 50.1371 82.148C50.5451 82.148 50.9171 82.052 51.2531 81.86C51.5971 81.66 51.8691 81.376 52.0691 81.008C52.2691 80.632 52.3691 80.196 52.3691 79.7ZM56.4809 74.12V83H55.3889V74.12H56.4809ZM59.7444 77.324V81.2C59.7444 81.52 59.8124 81.748 59.9484 81.884C60.0844 82.012 60.3204 82.076 60.6564 82.076H61.4604V83H60.4764C59.8684 83 59.4124 82.86 59.1084 82.58C58.8044 82.3 58.6524 81.84 58.6524 81.2V77.324H57.8004V76.424H58.6524V74.768H59.7444V76.424H61.4604V77.324H59.7444ZM66.1179 76.304C66.6139 76.304 67.0619 76.412 67.4619 76.628C67.8619 76.836 68.1739 77.152 68.3979 77.576C68.6299 78 68.7459 78.516 68.7459 79.124V83H67.6659V79.28C67.6659 78.624 67.5019 78.124 67.1739 77.78C66.8459 77.428 66.3979 77.252 65.8299 77.252C65.2539 77.252 64.7939 77.432 64.4499 77.792C64.1139 78.152 63.9459 78.676 63.9459 79.364V83H62.8539V74.12H63.9459V77.36C64.1619 77.024 64.4579 76.764 64.8339 76.58C65.2179 76.396 65.6459 76.304 66.1179 76.304Z" fill="#055EB0"/>
    <path d="M35 42H41.25L43.75 38.25L48.75 45.75L51.25 42H55" stroke="#055EB0" stroke-width="2" stroke-linecap="round" stroke-linejoin="round"/>
    <path d="M34.3929 36.999C34.381 36.7918 34.3751 36.5838 34.375 36.375C34.3753 34.4971 35.026 32.6773 36.2165 31.2249C37.4069 29.7725 39.0637 28.7773 40.905 28.4084C42.7463 28.0394 44.6586 28.3196 46.3166 29.2013C47.9747 30.083 49.2763 31.5117 50 33.2445L50 33.2446C50.7237 31.5117 52.0253 30.083 53.6833 29.2013C55.3414 28.3197 57.2537 28.0395 59.095 28.4084C60.9363 28.7773 62.5931 29.7725 63.7835 31.2249C64.974 32.6773 65.6247 34.4971 65.625 36.375C65.625 47 50 55.75 50 55.75C50 55.75 43.7586 52.2549 39.1652 47.0002" stroke="#055EB0" stroke-width="2" stroke-linecap="round" stroke-linejoin="round"/>
    <path d="M8 1H92V-1H8V1ZM99 8V92H101V8H99ZM92 99H8V101H92V99ZM1 92V8H-1V92H1ZM8 99C4.13401 99 1 95.866 1 92H-1C-1 96.9706 3.02944 101 8 101V99ZM99 92C99 95.866 95.866 99 92 99V101C96.9706 101 101 96.9706 101 92H99ZM92 1C95.866 1 99 4.13401 99 8H101C101 3.02944 96.9706 -1 92 -1V1ZM8 -1C3.02944 -1 -1 3.02944 -1 8H1C1 4.13401 4.13401 1 8 1V-1Z" fill="#055EB0"/>
</svg>
