<svg width="20" height="20" viewBox="0 0 20 20" fill="none" xmlns="http://www.w3.org/2000/svg">
    <path d="M18.0045 8.27667L10.504 1.45775C10.3659 1.33223 10.186 1.26269 9.99946 1.2627C9.81287 1.2627 9.63299 1.33226 9.49493 1.45778L1.99545 8.27667C1.91814 8.34696 1.85637 8.43264 1.8141 8.5282C1.77183 8.62375 1.75 8.72709 1.75 8.83158V17.4998C1.75 17.6988 1.82902 17.8895 1.96967 18.0302C2.11032 18.1708 2.30109 18.2498 2.5 18.2498H17.5C17.6989 18.2498 17.8897 18.1708 18.0303 18.0302C18.171 17.8895 18.25 17.6988 18.25 17.4998V8.83161C18.25 8.72711 18.2282 8.62377 18.1859 8.5282C18.1436 8.43264 18.0818 8.34696 18.0045 8.27667Z" stroke="#055EB0" stroke-width="2" stroke-linecap="round" stroke-linejoin="round"/>
</svg>
