<svg width="24" height="24" viewBox="0 0 24 24" fill="none" xmlns="http://www.w3.org/2000/svg">
    <path d="M11.2493 9.97687L8.81183 5.75499C8.56368 5.32436 8.49666 4.81283 8.6255 4.33281C8.75433 3.85279 9.06848 3.44356 9.49891 3.19506C9.92933 2.94655 10.4408 2.8791 10.9209 3.00754C11.4011 3.13597 11.8106 3.44978 12.0594 3.87999L15.8094 10.3752" stroke="#9E9E9E" stroke-width="1.25" stroke-linecap="round" stroke-linejoin="round"/>
    <path d="M8.37674 12.5014L4.81424 6.33095C4.69088 6.1177 4.61076 5.88223 4.57845 5.63799C4.54614 5.39376 4.56228 5.14555 4.62594 4.90756C4.68961 4.66957 4.79955 4.44646 4.94948 4.25097C5.09941 4.05549 5.2864 3.89147 5.49976 3.76829C5.71311 3.64511 5.94865 3.56519 6.19291 3.53308C6.43717 3.50097 6.68536 3.51732 6.9233 3.58118C7.16124 3.64504 7.38426 3.75517 7.57962 3.90527C7.77497 4.05537 7.93883 4.24249 8.06184 4.45595L11.2493 9.97686" stroke="#9E9E9E" stroke-width="1.25" stroke-linecap="round" stroke-linejoin="round"/>
    <path d="M14.437 15.4977C13.9397 14.6364 13.805 13.6129 14.0624 12.6522C14.3198 11.6915 14.9483 10.8724 15.8096 10.3752L14.8721 8.75136C14.7488 8.53811 14.6686 8.30264 14.6363 8.0584C14.604 7.81417 14.6202 7.56597 14.6838 7.32797C14.7475 7.08998 14.8574 6.86687 15.0074 6.67138C15.1573 6.4759 15.3443 6.31188 15.5576 6.1887C15.771 6.06552 16.0065 5.9856 16.2508 5.95349C16.495 5.92138 16.7432 5.93773 16.9812 6.00159C17.2191 6.06545 17.4421 6.17558 17.6375 6.32568C17.8328 6.47578 17.9967 6.6629 18.1197 6.87636L19.9947 10.124C20.4874 10.9769 20.8073 11.9186 20.936 12.8952C21.0648 13.8718 20.9999 14.8642 20.745 15.8157C20.4902 16.7673 20.0504 17.6592 19.4508 18.4408C18.8511 19.2223 18.1034 19.8781 17.2504 20.3706C16.3973 20.8631 15.4555 21.1828 14.4789 21.3113C13.5023 21.4398 12.5099 21.3747 11.5584 21.1196C10.6069 20.8646 9.71505 20.4246 8.93365 19.8248C8.15225 19.225 7.49667 18.4771 7.00433 17.624L3.06683 10.804C2.81869 10.3734 2.75167 9.86184 2.8805 9.38182C3.00934 8.9018 3.32349 8.49257 3.75391 8.24406C4.18433 7.99556 4.69581 7.92811 5.17594 8.05655C5.65607 8.18498 6.06556 8.49879 6.31442 8.929L8.37692 12.5014" stroke="#9E9E9E" stroke-width="1.25" stroke-linecap="round" stroke-linejoin="round"/>
    <path d="M7.60258 22.5002C6.33137 21.6181 5.27171 20.4651 4.5 19.124" stroke="#9E9E9E" stroke-width="1.25" stroke-linecap="round" stroke-linejoin="round"/>
    <path d="M16.5 2.90625C17.3557 2.90614 18.1964 3.13139 18.9374 3.55936C19.6784 3.98733 20.2936 4.6029 20.7212 5.34416" stroke="#9E9E9E" stroke-width="1.25" stroke-linecap="round" stroke-linejoin="round"/>
</svg>
