<svg width="100" height="100" viewBox="0 0 100 100" fill="none" xmlns="http://www.w3.org/2000/svg">
    <path d="M38.5309 74.696V83H37.4389V76.808L34.6789 83H33.9109L31.1389 76.796V83H30.0469V74.696H31.2229L34.2949 81.56L37.3669 74.696H38.5309ZM43.3212 83.108C42.7052 83.108 42.1452 82.968 41.6412 82.688C41.1452 82.408 40.7532 82.012 40.4652 81.5C40.1852 80.98 40.0452 80.38 40.0452 79.7C40.0452 79.028 40.1892 78.436 40.4772 77.924C40.7732 77.404 41.1732 77.008 41.6772 76.736C42.1812 76.456 42.7452 76.316 43.3692 76.316C43.9932 76.316 44.5572 76.456 45.0612 76.736C45.5652 77.008 45.9612 77.4 46.2492 77.912C46.5452 78.424 46.6932 79.02 46.6932 79.7C46.6932 80.38 46.5412 80.98 46.2372 81.5C45.9412 82.012 45.5372 82.408 45.0252 82.688C44.5132 82.968 43.9452 83.108 43.3212 83.108ZM43.3212 82.148C43.7132 82.148 44.0812 82.056 44.4252 81.872C44.7692 81.688 45.0452 81.412 45.2532 81.044C45.4692 80.676 45.5772 80.228 45.5772 79.7C45.5772 79.172 45.4732 78.724 45.2652 78.356C45.0572 77.988 44.7852 77.716 44.4492 77.54C44.1132 77.356 43.7492 77.264 43.3572 77.264C42.9572 77.264 42.5892 77.356 42.2532 77.54C41.9252 77.716 41.6612 77.988 41.4612 78.356C41.2612 78.724 41.1612 79.172 41.1612 79.7C41.1612 80.236 41.2572 80.688 41.4492 81.056C41.6492 81.424 41.9132 81.7 42.2412 81.884C42.5692 82.06 42.9292 82.148 43.3212 82.148ZM50.6474 81.992L52.6874 76.424H53.8514L51.2714 83H49.9994L47.4194 76.424H48.5954L50.6474 81.992ZM55.5603 75.356C55.3523 75.356 55.1763 75.284 55.0323 75.14C54.8883 74.996 54.8163 74.82 54.8163 74.612C54.8163 74.404 54.8883 74.228 55.0323 74.084C55.1763 73.94 55.3523 73.868 55.5603 73.868C55.7603 73.868 55.9283 73.94 56.0643 74.084C56.2083 74.228 56.2803 74.404 56.2803 74.612C56.2803 74.82 56.2083 74.996 56.0643 75.14C55.9283 75.284 55.7603 75.356 55.5603 75.356ZM56.0883 76.424V83H54.9963V76.424H56.0883ZM64.0198 79.46C64.0198 79.668 64.0078 79.888 63.9838 80.12H58.7278C58.7678 80.768 58.9878 81.276 59.3878 81.644C59.7958 82.004 60.2878 82.184 60.8638 82.184C61.3358 82.184 61.7278 82.076 62.0398 81.86C62.3598 81.636 62.5838 81.34 62.7118 80.972H63.8878C63.7118 81.604 63.3598 82.12 62.8318 82.52C62.3038 82.912 61.6478 83.108 60.8638 83.108C60.2398 83.108 59.6798 82.968 59.1838 82.688C58.6958 82.408 58.3118 82.012 58.0318 81.5C57.7518 80.98 57.6118 80.38 57.6118 79.7C57.6118 79.02 57.7478 78.424 58.0198 77.912C58.2918 77.4 58.6718 77.008 59.1598 76.736C59.6558 76.456 60.2238 76.316 60.8638 76.316C61.4878 76.316 62.0398 76.452 62.5198 76.724C62.9998 76.996 63.3678 77.372 63.6238 77.852C63.8878 78.324 64.0198 78.86 64.0198 79.46ZM62.8918 79.232C62.8918 78.816 62.7998 78.46 62.6158 78.164C62.4318 77.86 62.1798 77.632 61.8598 77.48C61.5478 77.32 61.1998 77.24 60.8158 77.24C60.2638 77.24 59.7918 77.416 59.3998 77.768C59.0158 78.12 58.7958 78.608 58.7398 79.232H62.8918ZM67.8596 83.108C67.3556 83.108 66.9036 83.024 66.5036 82.856C66.1036 82.68 65.7876 82.44 65.5556 82.136C65.3236 81.824 65.1956 81.468 65.1716 81.068H66.2996C66.3316 81.396 66.4836 81.664 66.7556 81.872C67.0356 82.08 67.3996 82.184 67.8476 82.184C68.2636 82.184 68.5916 82.092 68.8316 81.908C69.0716 81.724 69.1916 81.492 69.1916 81.212C69.1916 80.924 69.0636 80.712 68.8076 80.576C68.5516 80.432 68.1556 80.292 67.6196 80.156C67.1316 80.028 66.7316 79.9 66.4196 79.772C66.1156 79.636 65.8516 79.44 65.6276 79.184C65.4116 78.92 65.3036 78.576 65.3036 78.152C65.3036 77.816 65.4036 77.508 65.6036 77.228C65.8036 76.948 66.0876 76.728 66.4556 76.568C66.8236 76.4 67.2436 76.316 67.7156 76.316C68.4436 76.316 69.0316 76.5 69.4796 76.868C69.9276 77.236 70.1676 77.74 70.1996 78.38H69.1076C69.0836 78.036 68.9436 77.76 68.6876 77.552C68.4396 77.344 68.1036 77.24 67.6796 77.24C67.2876 77.24 66.9756 77.324 66.7436 77.492C66.5116 77.66 66.3956 77.88 66.3956 78.152C66.3956 78.368 66.4636 78.548 66.5996 78.692C66.7436 78.828 66.9196 78.94 67.1276 79.028C67.3436 79.108 67.6396 79.2 68.0156 79.304C68.4876 79.432 68.8716 79.56 69.1676 79.688C69.4636 79.808 69.7156 79.992 69.9236 80.24C70.1396 80.488 70.2516 80.812 70.2596 81.212C70.2596 81.572 70.1596 81.896 69.9596 82.184C69.7596 82.472 69.4756 82.7 69.1076 82.868C68.7476 83.028 68.3316 83.108 67.8596 83.108Z" fill="#055EB0"/>
    <path d="M33.75 31.375H53.75C55.0761 31.375 56.3479 31.9018 57.2855 32.8395C58.2232 33.7771 58.75 35.0489 58.75 36.375V51.375C58.75 51.7065 58.6183 52.0245 58.3839 52.2589C58.1495 52.4933 57.8315 52.625 57.5 52.625H37.5C36.1739 52.625 34.9021 52.0982 33.9645 51.1605C33.0268 50.2229 32.5 48.9511 32.5 47.625V32.625C32.5 32.2935 32.6317 31.9755 32.8661 31.7411C33.1005 31.5067 33.4185 31.375 33.75 31.375V31.375Z" stroke="#055EB0" stroke-width="2" stroke-linecap="round" stroke-linejoin="round"/>
    <path d="M58.75 39.5L67.5 34.5V49.5L58.75 44.5" stroke="#055EB0" stroke-width="2" stroke-linecap="round" stroke-linejoin="round"/>
    <path d="M8 1H92V-1H8V1ZM99 8V92H101V8H99ZM92 99H8V101H92V99ZM1 92V8H-1V92H1ZM8 99C4.13401 99 1 95.866 1 92H-1C-1 96.9706 3.02944 101 8 101V99ZM99 92C99 95.866 95.866 99 92 99V101C96.9706 101 101 96.9706 101 92H99ZM92 1C95.866 1 99 4.13401 99 8H101C101 3.02944 96.9706 -1 92 -1V1ZM8 -1C3.02944 -1 -1 3.02944 -1 8H1C1 4.13401 4.13401 1 8 1V-1Z" fill="#055EB0"/>
</svg>
