<svg width="100" height="100" viewBox="0 0 100 100" fill="none" xmlns="http://www.w3.org/2000/svg">
    <path d="M42.5055 74.696V83H41.4135V76.808L38.6535 83H37.8855L35.1135 76.796V83H34.0215V74.696H35.1975L38.2695 81.56L41.3415 74.696H42.5055ZM50.2598 76.424V83H49.1678V82.028C48.9598 82.364 48.6678 82.628 48.2918 82.82C47.9238 83.004 47.5158 83.096 47.0678 83.096C46.5558 83.096 46.0958 82.992 45.6878 82.784C45.2798 82.568 44.9558 82.248 44.7158 81.824C44.4838 81.4 44.3678 80.884 44.3678 80.276V76.424H45.4478V80.132C45.4478 80.78 45.6118 81.28 45.9398 81.632C46.2678 81.976 46.7158 82.148 47.2838 82.148C47.8678 82.148 48.3278 81.968 48.6638 81.608C48.9998 81.248 49.1678 80.724 49.1678 80.036V76.424H50.2598ZM54.502 83.108C53.998 83.108 53.546 83.024 53.146 82.856C52.746 82.68 52.43 82.44 52.198 82.136C51.966 81.824 51.838 81.468 51.814 81.068H52.942C52.974 81.396 53.126 81.664 53.398 81.872C53.678 82.08 54.042 82.184 54.49 82.184C54.906 82.184 55.234 82.092 55.474 81.908C55.714 81.724 55.834 81.492 55.834 81.212C55.834 80.924 55.706 80.712 55.45 80.576C55.194 80.432 54.798 80.292 54.262 80.156C53.774 80.028 53.374 79.9 53.062 79.772C52.758 79.636 52.494 79.44 52.27 79.184C52.054 78.92 51.946 78.576 51.946 78.152C51.946 77.816 52.046 77.508 52.246 77.228C52.446 76.948 52.73 76.728 53.098 76.568C53.466 76.4 53.886 76.316 54.358 76.316C55.086 76.316 55.674 76.5 56.122 76.868C56.57 77.236 56.81 77.74 56.842 78.38H55.75C55.726 78.036 55.586 77.76 55.33 77.552C55.082 77.344 54.746 77.24 54.322 77.24C53.93 77.24 53.618 77.324 53.386 77.492C53.154 77.66 53.038 77.88 53.038 78.152C53.038 78.368 53.106 78.548 53.242 78.692C53.386 78.828 53.562 78.94 53.77 79.028C53.986 79.108 54.282 79.2 54.658 79.304C55.13 79.432 55.514 79.56 55.81 79.688C56.106 79.808 56.358 79.992 56.566 80.24C56.782 80.488 56.894 80.812 56.902 81.212C56.902 81.572 56.802 81.896 56.602 82.184C56.402 82.472 56.118 82.7 55.75 82.868C55.39 83.028 54.974 83.108 54.502 83.108ZM59.0779 75.356C58.8699 75.356 58.6939 75.284 58.5499 75.14C58.4059 74.996 58.3339 74.82 58.3339 74.612C58.3339 74.404 58.4059 74.228 58.5499 74.084C58.6939 73.94 58.8699 73.868 59.0779 73.868C59.2779 73.868 59.4459 73.94 59.5819 74.084C59.7259 74.228 59.7979 74.404 59.7979 74.612C59.7979 74.82 59.7259 74.996 59.5819 75.14C59.4459 75.284 59.2779 75.356 59.0779 75.356ZM59.6059 76.424V83H58.5139V76.424H59.6059ZM61.1294 79.7C61.1294 79.02 61.2654 78.428 61.5374 77.924C61.8094 77.412 62.1854 77.016 62.6654 76.736C63.1534 76.456 63.7094 76.316 64.3334 76.316C65.1414 76.316 65.8054 76.512 66.3254 76.904C66.8534 77.296 67.2014 77.84 67.3694 78.536H66.1934C66.0814 78.136 65.8614 77.82 65.5334 77.588C65.2134 77.356 64.8134 77.24 64.3334 77.24C63.7094 77.24 63.2054 77.456 62.8214 77.888C62.4374 78.312 62.2454 78.916 62.2454 79.7C62.2454 80.492 62.4374 81.104 62.8214 81.536C63.2054 81.968 63.7094 82.184 64.3334 82.184C64.8134 82.184 65.2134 82.072 65.5334 81.848C65.8534 81.624 66.0734 81.304 66.1934 80.888H67.3694C67.1934 81.56 66.8414 82.1 66.3134 82.508C65.7854 82.908 65.1254 83.108 64.3334 83.108C63.7094 83.108 63.1534 82.968 62.6654 82.688C62.1854 82.408 61.8094 82.012 61.5374 81.5C61.2654 80.988 61.1294 80.388 61.1294 79.7Z" fill="#055EB0"/>
    <path d="M58.125 53.25C60.5412 53.25 62.5 51.2912 62.5 48.875C62.5 46.4588 60.5412 44.5 58.125 44.5C55.7088 44.5 53.75 46.4588 53.75 48.875C53.75 51.2912 55.7088 53.25 58.125 53.25Z" stroke="#055EB0" stroke-width="2" stroke-linecap="round" stroke-linejoin="round"/>
    <path d="M38.125 58.25C40.5412 58.25 42.5 56.2912 42.5 53.875C42.5 51.4588 40.5412 49.5 38.125 49.5C35.7088 49.5 33.75 51.4588 33.75 53.875C33.75 56.2912 35.7088 58.25 38.125 58.25Z" stroke="#055EB0" stroke-width="2" stroke-linecap="round" stroke-linejoin="round"/>
    <path d="M62.5 34.5L42.5 39.5" stroke="#055EB0" stroke-width="2" stroke-linecap="round" stroke-linejoin="round"/>
    <path d="M42.5 53.875V32L62.5 27V48.875" stroke="#055EB0" stroke-width="2" stroke-linecap="round" stroke-linejoin="round"/>
    <path d="M8 1H92V-1H8V1ZM99 8V92H101V8H99ZM92 99H8V101H92V99ZM1 92V8H-1V92H1ZM8 99C4.13401 99 1 95.866 1 92H-1C-1 96.9706 3.02944 101 8 101V99ZM99 92C99 95.866 95.866 99 92 99V101C96.9706 101 101 96.9706 101 92H99ZM92 1C95.866 1 99 4.13401 99 8H101C101 3.02944 96.9706 -1 92 -1V1ZM8 -1C3.02944 -1 -1 3.02944 -1 8H1C1 4.13401 4.13401 1 8 1V-1Z" fill="#055EB0"/>
</svg>
