<svg width="250" height="250" viewBox="0 0 250 250" fill="none" xmlns="http://www.w3.org/2000/svg">
<g clip-path="url(#clip0_556_958)">
<path d="M24.0415 210.603L21.8397 201.945C17.9358 200.296 13.9418 198.867 9.87652 197.666L9.59861 201.69L8.47153 197.257C3.42989 195.82 0 195.188 0 195.188C0 195.188 4.63181 212.753 14.3499 226.181L25.6724 228.164L16.8763 229.429C18.0987 230.895 19.4124 232.283 20.8096 233.585C34.945 246.667 50.6895 252.669 55.9755 246.991C61.2615 241.313 54.0876 226.106 39.9521 213.025C35.57 208.97 30.0652 205.715 24.5547 203.153L24.0415 210.603Z" fill="#F2F2F2"/>
<path d="M44.9807 201.199L47.5845 192.653C45.0981 189.229 42.4199 185.948 39.5628 182.824L37.2388 186.126L38.572 181.75C35.0004 177.923 32.3922 175.614 32.3922 175.614C32.3922 175.614 27.2519 193.038 28.6078 209.541L37.2724 217.074L29.0855 213.623C29.3719 215.509 29.777 217.375 30.2985 219.21C35.617 237.693 45.9832 250.945 53.4518 248.809C60.9205 246.672 62.6638 229.957 57.3453 211.473C55.6966 205.743 52.6712 200.121 49.2822 195.088L44.9807 201.199Z" fill="#F2F2F2"/>
<path d="M174.449 59.2252H173.075V21.7123C173.075 18.861 172.512 16.0376 171.418 13.4034C170.323 10.7691 168.719 8.37555 166.697 6.35938C164.675 4.34321 162.274 2.74389 159.632 1.65275C156.99 0.561603 154.158 0 151.298 0H71.5814C65.8057 0 60.2666 2.28754 56.1825 6.35938C52.0985 10.4312 49.8041 15.9538 49.8041 21.7123V227.514C49.8041 230.366 50.3674 233.189 51.4618 235.823C52.5562 238.458 54.1603 240.851 56.1825 242.867C58.2047 244.883 60.6054 246.483 63.2476 247.574C65.8897 248.665 68.7216 249.227 71.5814 249.227H151.298C157.074 249.227 162.613 246.939 166.697 242.867C170.781 238.795 173.075 233.273 173.075 227.514V85.9276H174.448L174.449 59.2252Z" fill="#E6E6E6"/>
<path d="M152.177 5.64673H141.772C142.25 6.81648 142.433 8.08563 142.304 9.34235C142.174 10.5991 141.737 11.8048 141.03 12.8533C140.323 13.9018 139.369 14.7608 138.25 15.3548C137.132 15.9488 135.885 16.2595 134.617 16.2594H88.9487C87.6816 16.2594 86.4341 15.9486 85.3159 15.3546C84.1976 14.7606 83.2431 13.9015 82.5363 12.853C81.8296 11.8045 81.3923 10.5988 81.263 9.34218C81.1337 8.08552 81.3164 6.81643 81.7949 5.64673H72.0761C67.7629 5.64673 63.6263 7.35504 60.5764 10.3959C57.5265 13.4367 55.8131 17.5609 55.8131 21.8613V227.364C55.8131 231.665 57.5265 235.789 60.5764 238.83C63.6263 241.871 67.7629 243.579 72.0761 243.579H152.177C156.49 243.579 160.627 241.871 163.676 238.83C166.726 235.789 168.44 231.665 168.44 227.364V21.8609C168.44 17.5606 166.726 13.4365 163.676 10.3957C160.626 7.35499 156.49 5.64673 152.177 5.64673Z" fill="white"/>
<path d="M101.919 87.5087C101.919 86.0722 102.298 84.6611 103.019 83.4172C103.74 82.1733 104.776 81.1406 106.024 80.4231C104.777 79.7047 103.362 79.3265 101.921 79.3263C100.48 79.3261 99.0651 79.7041 97.8174 80.4222C96.5698 81.1402 95.5337 82.1731 94.8133 83.417C94.093 84.6608 93.7137 86.0719 93.7137 87.5082C93.7137 88.9445 94.093 90.3555 94.8133 91.5994C95.5337 92.8433 96.5698 93.8761 97.8174 94.5942C99.0651 95.3123 100.48 95.6902 101.921 95.6901C103.362 95.6899 104.777 95.3116 106.024 94.5933C104.776 93.8759 103.74 92.8434 103.019 91.5997C102.299 90.356 101.919 88.945 101.919 87.5087Z" fill="#CCCCCC"/>
<path d="M112.236 87.5087C112.236 86.0722 112.615 84.661 113.336 83.4171C114.056 82.1733 115.093 81.1406 116.341 80.4231C115.093 79.7047 113.678 79.3265 112.238 79.3263C110.797 79.3261 109.382 79.7041 108.134 80.4222C106.886 81.1402 105.85 82.1731 105.13 83.417C104.409 84.6608 104.03 86.0719 104.03 87.5082C104.03 88.9445 104.409 90.3555 105.13 91.5994C105.85 92.8433 106.886 93.8761 108.134 94.5942C109.382 95.3123 110.797 95.6902 112.238 95.6901C113.678 95.6899 115.093 95.3116 116.341 94.5933C115.093 93.8759 114.056 92.8434 113.336 91.5997C112.615 90.356 112.236 88.945 112.236 87.5087Z" fill="#CCCCCC"/>
<path d="M122.318 95.6903C126.851 95.6903 130.525 92.0271 130.525 87.5084C130.525 82.9897 126.851 79.3265 122.318 79.3265C117.786 79.3265 114.112 82.9897 114.112 87.5084C114.112 92.0271 117.786 95.6903 122.318 95.6903Z" fill="#055EB0"/>
<path d="M136.033 113.064H88.2046C87.7493 113.063 87.3127 112.883 86.9907 112.562C86.6688 112.241 86.4877 111.805 86.4871 111.351V63.6655C86.4877 63.2115 86.6688 62.7763 86.9907 62.4552C87.3127 62.1342 87.7493 61.9537 88.2046 61.9531H136.033C136.488 61.9537 136.925 62.1342 137.247 62.4552C137.569 62.7763 137.75 63.2115 137.751 63.6655V111.351C137.75 111.805 137.569 112.241 137.247 112.562C136.925 112.883 136.488 113.063 136.033 113.064ZM88.2046 62.6385C87.9314 62.6387 87.6694 62.7471 87.4763 62.9397C87.2831 63.1323 87.1744 63.3934 87.1742 63.6658V111.352C87.1744 111.624 87.2831 111.885 87.4763 112.078C87.6694 112.27 87.9314 112.379 88.2046 112.379H136.033C136.306 112.379 136.568 112.27 136.761 112.078C136.955 111.885 137.063 111.624 137.064 111.352V63.6658C137.063 63.3934 136.955 63.1323 136.761 62.9397C136.568 62.7471 136.306 62.6387 136.033 62.6385H88.2046Z" fill="#CCCCCC"/>
<path d="M146.712 149.617H73.3579V150.302H146.712V149.617Z" fill="#CCCCCC"/>
<path d="M75.6745 145.34C76.9539 145.34 77.9911 144.306 77.9911 143.031C77.9911 141.755 76.9539 140.721 75.6745 140.721C74.3951 140.721 73.3579 141.755 73.3579 143.031C73.3579 144.306 74.3951 145.34 75.6745 145.34Z" fill="#055EB0"/>
<path d="M146.712 172.712H73.3579V173.397H146.712V172.712Z" fill="#CCCCCC"/>
<path d="M75.6745 168.436C76.9539 168.436 77.9911 167.402 77.9911 166.126C77.9911 164.851 76.9539 163.817 75.6745 163.817C74.3951 163.817 73.3579 164.851 73.3579 166.126C73.3579 167.402 74.3951 168.436 75.6745 168.436Z" fill="#055EB0"/>
<path d="M145.37 199.012H122.188C121.788 199.012 121.404 198.853 121.121 198.571C120.837 198.289 120.678 197.906 120.678 197.507V189.406C120.678 189.006 120.837 188.624 121.121 188.341C121.404 188.059 121.788 187.9 122.188 187.9H145.37C145.771 187.9 146.154 188.059 146.438 188.341C146.721 188.624 146.88 189.006 146.88 189.406V197.507C146.88 197.906 146.721 198.289 146.438 198.571C146.154 198.853 145.771 199.012 145.37 199.012Z" fill="#055EB0"/>
<path d="M83.2311 145.34C84.5105 145.34 85.5476 144.306 85.5476 143.031C85.5476 141.755 84.5105 140.721 83.2311 140.721C81.9517 140.721 80.9145 141.755 80.9145 143.031C80.9145 144.306 81.9517 145.34 83.2311 145.34Z" fill="#055EB0"/>
<path d="M90.7877 145.34C92.0671 145.34 93.1042 144.306 93.1042 143.031C93.1042 141.755 92.0671 140.721 90.7877 140.721C89.5082 140.721 88.4711 141.755 88.4711 143.031C88.4711 144.306 89.5082 145.34 90.7877 145.34Z" fill="#055EB0"/>
<path d="M83.2311 168.436C84.5105 168.436 85.5476 167.402 85.5476 166.126C85.5476 164.851 84.5105 163.817 83.2311 163.817C81.9517 163.817 80.9145 164.851 80.9145 166.126C80.9145 167.402 81.9517 168.436 83.2311 168.436Z" fill="#055EB0"/>
<path d="M90.7877 168.436C92.0671 168.436 93.1042 167.402 93.1042 166.126C93.1042 164.851 92.0671 163.817 90.7877 163.817C89.5082 163.817 88.4711 164.851 88.4711 166.126C88.4711 167.402 89.5082 168.436 90.7877 168.436Z" fill="#055EB0"/>
<path d="M249.066 250H8.08219C7.56631 250 7.14844 249.817 7.14844 249.592C7.14844 249.367 7.56631 249.184 8.08219 249.184H249.066C249.582 249.184 250 249.367 250 249.592C250 249.818 249.582 250 249.066 250Z" fill="#3F3D56"/>
<path d="M189.527 163.792C189.692 163.867 189.85 163.955 190.001 164.056L205.055 157.65L205.592 153.696L211.608 153.659L211.252 162.727L191.383 167.966C191.341 168.104 191.291 168.239 191.232 168.371C190.945 168.982 190.483 169.495 189.904 169.845C189.326 170.195 188.656 170.367 187.98 170.339C187.303 170.311 186.65 170.085 186.103 169.688C185.555 169.291 185.137 168.742 184.901 168.109C184.666 167.477 184.623 166.788 184.778 166.132C184.934 165.475 185.28 164.878 185.774 164.417C186.269 163.956 186.889 163.65 187.556 163.539C188.224 163.428 188.91 163.516 189.527 163.792Z" fill="#FFB8B8"/>
<path d="M213.795 245.966H209.68L207.723 230.141L213.796 230.142L213.795 245.966Z" fill="#FFB8B8"/>
<path d="M206.741 244.793H214.677V249.775H201.745C201.745 248.454 202.271 247.187 203.208 246.252C204.145 245.318 205.416 244.793 206.741 244.793Z" fill="#2F2E41"/>
<path d="M229.799 244.806L225.703 245.209L222.199 229.652L228.243 229.058L229.799 244.806Z" fill="#FFB8B8"/>
<path d="M222.663 244.329L230.561 243.554L231.051 248.511L218.181 249.775C218.116 249.124 218.181 248.467 218.372 247.841C218.562 247.215 218.874 246.632 219.291 246.127C219.707 245.621 220.219 245.202 220.798 244.894C221.376 244.585 222.01 244.393 222.663 244.329Z" fill="#2F2E41"/>
<path d="M214.941 136.912C219.494 136.912 223.184 133.232 223.184 128.693C223.184 124.154 219.494 120.474 214.941 120.474C210.388 120.474 206.697 124.154 206.697 128.693C206.697 133.232 210.388 136.912 214.941 136.912Z" fill="#FFB8B8"/>
<path d="M208.761 242.765C208.407 242.766 208.065 242.643 207.794 242.416C207.522 242.19 207.34 241.876 207.279 241.528C205.149 229.74 198.187 191.197 198.021 190.129C198.017 190.105 198.015 190.08 198.016 190.055V187.181C198.015 187.077 198.048 186.975 198.109 186.89L199.029 185.605C199.073 185.543 199.13 185.493 199.197 185.456C199.263 185.42 199.337 185.399 199.413 185.396C204.656 185.151 221.828 184.433 222.658 185.466C223.491 186.505 223.197 189.651 223.129 190.272L223.132 190.336L230.847 239.526C230.908 239.919 230.811 240.319 230.577 240.64C230.344 240.962 229.993 241.179 229.6 241.245L224.782 242.036C224.423 242.094 224.055 242.021 223.746 241.831C223.436 241.641 223.205 241.346 223.095 241.001C221.605 236.253 216.607 220.281 214.875 214.101C214.865 214.062 214.84 214.028 214.806 214.005C214.772 213.983 214.731 213.974 214.69 213.98C214.65 213.985 214.613 214.006 214.587 214.036C214.56 214.067 214.546 214.107 214.546 214.147C214.633 220.039 214.842 235.07 214.914 240.261L214.922 240.82C214.925 241.199 214.786 241.565 214.532 241.846C214.277 242.127 213.926 242.303 213.548 242.338L208.902 242.759C208.855 242.764 208.807 242.765 208.761 242.765Z" fill="#2F2E41"/>
<path d="M209.709 140.144C208.27 140.996 207.409 142.563 206.915 144.158C206.001 147.11 205.45 150.162 205.276 153.246L204.754 162.482L198.291 186.968C203.893 191.693 207.124 190.619 214.664 186.754C222.204 182.889 223.066 188.043 223.066 188.043L224.573 167.209L226.728 144.442C226.244 143.862 225.697 143.337 225.096 142.878C223.105 141.335 220.788 140.262 218.32 139.74C215.853 139.219 213.299 139.262 210.851 139.868L209.709 140.144Z" fill="#055EB0"/>
<path d="M207.61 168.737C207.784 168.803 207.952 168.881 208.113 168.973L222.998 161.545L223.245 157.521L229.386 157.099L229.715 166.272L209.823 172.831C209.66 173.525 209.29 174.154 208.76 174.633C208.23 175.113 207.567 175.42 206.858 175.515C206.149 175.609 205.428 175.486 204.791 175.162C204.153 174.837 203.63 174.327 203.291 173.7C202.951 173.072 202.812 172.356 202.89 171.647C202.969 170.938 203.262 170.27 203.731 169.731C204.2 169.192 204.822 168.809 205.515 168.631C206.208 168.454 206.938 168.491 207.61 168.737Z" fill="#FFB8B8"/>
<path d="M226.62 144.547C230.282 145.835 230.927 159.797 230.927 159.797C226.619 157.435 221.448 161.301 221.448 161.301C221.448 161.301 220.371 157.65 219.079 152.924C218.688 151.595 218.642 150.189 218.943 148.837C219.244 147.485 219.884 146.231 220.802 145.192C220.802 145.192 222.958 143.257 226.62 144.547Z" fill="#055EB0"/>
<path d="M222.332 130.866C221.305 130.047 219.904 131.536 219.904 131.536L219.082 124.163C219.082 124.163 213.947 124.776 210.66 123.958C207.373 123.14 206.86 126.928 206.86 126.928C206.69 125.398 206.656 123.856 206.757 122.32C206.962 120.477 209.633 118.633 214.357 117.404C219.082 116.175 221.547 121.501 221.547 121.501C224.834 123.139 223.359 131.686 222.332 130.866Z" fill="#2F2E41"/>
</g>
<defs>
<clipPath id="clip0_556_958">
<rect width="250" height="250" fill="white"/>
</clipPath>
</defs>
</svg>
