<svg width="265" height="250" viewBox="0 0 265 250" fill="none" xmlns="http://www.w3.org/2000/svg">
<path d="M53.049 201.755C53.1032 207.329 49.8203 209.307 45.7476 209.347C45.653 209.348 45.5588 209.348 45.4651 209.347C45.2763 209.344 45.0895 209.338 44.9045 209.326C41.2262 209.101 38.3503 207.083 38.2999 201.9C38.2478 196.535 45.0138 189.699 45.5213 189.193L45.5222 189.193C45.5415 189.174 45.5514 189.164 45.5514 189.164C45.5514 189.164 52.9949 196.182 53.049 201.755Z" fill="#055EB0"/>
<path d="M169.474 201.442C169.528 207.016 166.245 208.994 162.173 209.034C162.078 209.035 161.984 209.035 161.89 209.033C161.702 209.031 161.515 209.024 161.33 209.013C157.651 208.788 154.776 206.77 154.725 201.586C154.673 196.222 161.439 189.386 161.947 188.88L161.947 188.88C161.967 188.86 161.977 188.851 161.977 188.851C161.977 188.851 169.42 195.869 169.474 201.442Z" fill="#055EB0"/>
<path d="M265 208.633H0V209.259H265V208.633Z" fill="#3F3D56"/>
<path d="M53.9988 103.993C82.6149 103.993 105.813 80.7133 105.813 51.9965C105.813 23.2796 82.6149 0 53.9988 0C25.3828 0 2.18494 23.2796 2.18494 51.9965C2.18494 80.7133 25.3828 103.993 53.9988 103.993Z" fill="#055EB0"/>
<path d="M117.049 162.254H117.05C129.467 162.254 141.376 167.204 150.156 176.016C158.936 184.827 163.869 196.778 163.869 209.239V209.239H90.5182V188.879C90.5182 181.817 93.3135 175.045 98.2891 170.052C103.265 165.059 110.013 162.254 117.049 162.254Z" fill="#3F3D56"/>
<path d="M218.773 100.253C218.773 100.253 220.909 128.117 217.919 128.974C214.929 129.832 204.249 136.262 187.162 134.547C187.162 134.547 170.503 143.549 173.066 134.976C175.629 126.402 187.162 128.545 187.162 128.545C187.162 128.545 207.667 124.259 208.521 121.258C209.375 118.257 205.958 105.826 207.24 105.397C208.521 104.968 218.773 100.253 218.773 100.253Z" fill="#A0616A"/>
<path d="M193.186 148.834C193.186 148.834 194.851 189.089 197.414 195.091C199.549 200.09 200.795 216.391 201.152 221.698C201.223 222.762 201.259 223.384 201.259 223.384C201.259 223.384 208.094 223.384 208.521 221.669C208.948 219.954 210.23 201.092 208.521 195.091C206.812 189.089 210.7 147.548 210.7 147.548L193.186 148.834Z" fill="#2F2E41"/>
<path d="M202.968 221.24C202.968 221.24 198.696 222.526 197.842 224.241C196.987 225.956 182.891 228.957 187.162 231.1C191.434 233.243 204.249 229.385 204.249 229.385C204.249 229.385 211.084 228.957 210.657 226.384C210.23 223.812 208.674 220.643 208.674 220.643L202.968 221.24Z" fill="#2F2E41"/>
<path d="M214.929 225.856C214.929 225.856 210.657 227.142 209.803 228.856C208.948 230.571 194.851 233.572 199.123 235.715C203.395 237.859 216.21 234.001 216.21 234.001C216.21 234.001 223.045 233.572 222.618 231C222.191 228.428 220.635 225.259 220.635 225.259L214.929 225.856Z" fill="#2F2E41"/>
<path d="M196.987 147.836L202.968 158.124L212.949 193.895C212.949 193.895 211.938 226.713 213.22 226.713C214.501 226.713 221.336 228.856 221.763 226.713C222.124 224.902 226.909 207.559 224.524 196.014C222.973 188.718 221.975 181.315 221.539 173.867L220.482 153.838C220.482 153.838 224.754 146.121 220.055 144.835C215.356 143.549 196.987 147.836 196.987 147.836Z" fill="#2F2E41"/>
<path d="M202.541 81.8195C208.203 81.8195 212.793 77.2133 212.793 71.5312C212.793 65.8491 208.203 61.2429 202.541 61.2429C196.878 61.2429 192.288 65.8491 192.288 71.5312C192.288 77.2133 196.878 81.8195 202.541 81.8195Z" fill="#A0616A"/>
<path d="M201.259 78.3901C201.259 78.3901 202.968 92.1078 202.541 92.9652C202.113 93.8225 212.793 83.5343 212.793 83.5343C212.793 83.5343 208.948 77.5327 209.803 74.532L201.259 78.3901Z" fill="#A0616A"/>
<path d="M225.181 92.1079C225.181 92.1079 213.22 83.5343 212.793 81.8196L203.822 89.5358L202.298 87.715C202.298 87.715 195.279 94.6799 195.279 97.6807C195.279 100.681 194.851 109.684 196.133 112.256C197.414 114.828 192.288 147.407 192.288 147.407C192.288 147.407 196.56 151.266 196.987 151.694C197.414 152.123 214.501 149.122 214.501 149.122C214.501 149.122 223.045 148.265 223.045 146.979C223.045 145.693 220.482 126.402 221.336 121.258C222.191 116.114 225.181 92.1079 225.181 92.1079Z" fill="#575A89"/>
<path d="M227.744 104.111C227.744 104.111 229.88 131.975 226.89 132.832C223.899 133.69 213.22 140.12 196.133 138.405C196.133 138.405 179.473 147.407 182.036 138.834C184.599 130.26 196.133 132.404 196.133 132.404C196.133 132.404 216.637 128.117 217.492 125.116C218.346 122.115 214.929 109.684 216.21 109.255C217.492 108.826 227.744 104.111 227.744 104.111Z" fill="#A0616A"/>
<path d="M198.161 66.3918C199.563 65.8912 201.109 65.6342 202.538 66.0491C204.56 66.6364 205.961 68.4153 207.471 69.8868C208.982 71.3583 211.1 72.6622 213.09 71.9702C212.97 71.105 213.196 70.2273 213.719 69.529C213.978 69.2686 214.17 68.9481 214.277 68.5958C214.362 68.0448 213.901 67.5695 213.762 67.0295C213.52 66.0832 214.185 64.7877 213.367 64.2573C213.151 64.1173 212.878 64.0854 212.667 63.9377C211.84 63.3577 212.758 61.9154 212.212 61.0647C212.048 60.845 211.835 60.6669 211.591 60.5447C207.627 58.2236 202.779 58.2172 198.19 58.2757C197.551 58.2839 196.662 58.6022 196.842 59.2174C195.975 58.5926 194.839 59.4698 194.14 60.2795L192.71 61.9368C192.037 62.6575 191.45 63.454 190.961 64.3103C190.524 65.1491 190.427 66.4386 191.297 66.8043C190.65 66.5324 189.866 70.3765 192.847 69.7441C194.579 69.3766 196.277 67.0647 198.161 66.3918Z" fill="#2F2E41"/>
<path d="M218.346 92.9652L225.181 92.1078C225.181 92.1078 232.016 105.397 228.171 107.54C224.326 109.684 214.501 111.398 214.501 110.541C214.501 109.684 218.346 92.9652 218.346 92.9652Z" fill="#575A89"/>
<path d="M124.673 95.8812C124.673 95.8812 126.712 102.604 125.547 104.65C124.382 106.696 127.586 111.081 132.829 109.035C138.071 106.988 138.363 104.65 138.363 104.65C138.363 104.65 136.324 101.435 135.741 94.712L124.673 95.8812Z" fill="#FFB9B9"/>
<path d="M98.022 161.794C98.022 161.794 87.5363 167.055 92.1966 174.07C94.9055 178.148 100.075 186.077 103.929 192.003C107.154 196.962 109.628 202.374 111.269 208.062L112.003 210.607L114.916 214.115L121.032 207.1C121.032 207.1 112.003 190.439 112.003 187.224C112.003 184.009 104.721 173.778 104.721 173.778L112.003 169.101C112.003 169.101 103.847 159.748 98.022 161.794Z" fill="#FFB9B9"/>
<path d="M132.101 179.916C132.101 179.916 132.392 188.101 132.683 191.316C132.923 193.968 130.586 201.396 131.397 209.658C131.891 215.004 131.832 220.387 131.22 225.72L130.062 236.329L138.8 237.206L141.712 213.238C141.712 213.238 143.46 196.285 142.586 190.731L142.878 179.039C142.878 179.039 136.47 176.701 132.101 179.916Z" fill="#FFB9B9"/>
<path d="M116.518 145.864C116.518 145.864 96.1287 159.017 95.8374 163.109C95.8374 163.109 107.488 161.94 107.779 172.17C107.779 172.17 114.77 169.54 116.518 168.955C118.265 168.371 127.586 162.232 127.586 162.232C127.586 162.232 131.372 165.155 131.372 169.832C131.372 174.509 131.081 182.693 131.372 183.278C131.664 183.862 138.363 175.386 143.897 182.693L147.683 162.525C147.683 162.525 148.849 150.248 146.518 149.371L130.207 143.233L116.518 145.864Z" fill="#2F2E41"/>
<path d="M128.897 99.5348C133.722 99.5348 137.635 95.6089 137.635 90.766C137.635 85.923 133.722 81.9971 128.897 81.9971C124.071 81.9971 120.158 85.923 120.158 90.766C120.158 95.6089 124.071 99.5348 128.897 99.5348Z" fill="#FFB9B9"/>
<path d="M126.712 106.112C126.712 106.112 136.568 108.724 137.902 103.764C137.902 103.764 150.014 106.112 152.053 114.004C154.091 121.896 147.101 140.895 147.101 141.479C147.101 142.064 152.926 145.572 150.305 147.325C147.683 149.079 145.353 147.033 146.518 149.371C147.683 151.71 149.722 152.294 147.975 152.879C146.227 153.464 135.741 144.402 127.586 146.741C119.43 149.079 115.353 147.325 115.353 147.325L111.696 115.608C111.553 114.393 111.716 113.161 112.169 112.025C112.622 110.889 113.352 109.886 114.291 109.105C116.117 107.598 118.539 105.969 120.887 105.527C125.547 104.65 125.741 104.17 125.741 104.17L126.712 106.112Z" fill="#D0CDE1"/>
<path d="M117.391 157.263C117.391 157.263 120.013 172.171 123.508 170.124C127.003 168.078 122.634 157.263 122.634 157.263H117.391Z" fill="#FFB9B9"/>
<path d="M129.559 159.193C129.559 159.193 125.017 173.627 129.059 173.434C133.101 173.241 134.208 161.625 134.208 161.625L129.559 159.193Z" fill="#FFB9B9"/>
<path d="M113.459 210.023C113.459 210.023 111.42 207.684 110.255 210.9C109.09 214.115 105.886 218.207 105.886 218.207C105.886 218.207 98.8958 226.099 103.847 226.391C108.799 226.684 115.789 219.376 115.789 219.376L123.945 211.777C123.945 211.777 121.242 205.17 119.972 205.112C118.702 205.054 118.993 212.946 113.459 210.023Z" fill="#2F2E41"/>
<path d="M132.392 234.283C132.392 234.283 130.339 234.885 130.492 232.392C130.492 232.392 123.071 236.329 125.11 239.252C127.149 242.175 129.479 245.098 129.479 245.098C129.479 245.098 140.256 251.237 141.13 249.775C142.004 248.314 142.004 245.391 141.421 244.221C140.839 243.052 137.926 241.006 138.8 239.252C139.674 237.499 138.508 232.822 137.052 232.822C135.596 232.822 132.392 234.283 132.392 234.283Z" fill="#2F2E41"/>
<path d="M121.271 83.3357C121.271 83.3357 124.082 77.2239 129.47 78.6343C134.857 80.0447 137.902 82.1604 138.137 84.276C138.371 86.3916 138.02 89.5651 138.02 89.5651C138.02 89.5651 137.434 85.2163 133.686 86.1566C129.938 87.0969 124.082 86.3916 124.082 86.3916L123.145 94.8542C123.145 94.8542 122.091 93.3262 120.92 94.2665C119.748 95.2068 117.523 85.2163 121.271 83.3357Z" fill="#2F2E41"/>
<path d="M147.101 113.711C147.101 113.711 140.11 132.711 140.693 135.049C141.276 137.387 140.693 137.68 139.819 138.264C138.945 138.849 136.615 144.987 136.615 144.987C136.615 144.987 135.159 148.495 133.994 149.371C132.829 150.248 132.829 152.587 132.829 152.587C132.829 152.587 129.916 155.51 130.499 156.094C131.081 156.679 131.081 157.556 129.916 158.433C128.751 159.309 127.586 160.479 128.168 160.771C128.751 161.063 132.829 164.279 133.994 163.986C135.159 163.694 133.411 162.525 134.868 161.94C136.324 161.356 137.198 160.479 136.615 160.186C136.033 159.894 134.285 159.894 136.033 159.309C137.78 158.725 143.897 154.925 145.936 150.248C147.975 145.572 157.744 117.276 151.84 113.302C151.84 113.302 149.431 110.204 147.101 113.711Z" fill="#D0CDE1"/>
<path d="M114.77 110.496L114.652 110.545C113.551 111.006 112.58 111.728 111.82 112.651C111.061 113.573 110.537 114.667 110.294 115.838C109.658 118.893 109.032 123.312 109.527 127.449C110.401 134.757 110.983 137.972 112.149 140.31C113.314 142.649 113.605 141.772 113.314 143.525C113.022 145.279 111.566 143.818 113.022 146.156C114.479 148.494 115.352 147.91 114.77 149.079C114.187 150.248 113.314 150.248 114.479 151.71C115.644 153.171 115.644 153.756 115.935 154.34C116.226 154.925 117.1 159.309 117.1 159.309C117.1 159.309 121.76 157.848 124.382 158.433C124.382 158.433 122.052 154.34 122.634 153.463C123.217 152.587 124.091 152.294 123.217 151.417C122.343 150.541 120.887 150.833 122.343 149.956C123.799 149.079 121.178 140.018 121.178 140.018L114.77 110.496Z" fill="#D0CDE1"/>
<path d="M58.9929 208.612H48.3804L53.2185 44.1656L58.9929 208.612Z" fill="#3F3D56"/>
<path d="M54.1549 75.3322L65.5477 59.514L53.9988 79.2476L52.7503 77.055L54.1549 75.3322Z" fill="#3F3D56"/>
<path d="M52.9064 91.3071L41.5135 75.4889L53.0624 95.2225L54.311 93.0299L52.9064 91.3071Z" fill="#3F3D56"/>
<path d="M58.7518 123.075L53.6158 126.051L55.1764 128.763L60.3124 125.788L58.7518 123.075Z" fill="#3F3D56"/>
</svg>
