<svg width="320" height="250" viewBox="0 0 320 250" fill="none" xmlns="http://www.w3.org/2000/svg">
<g clip-path="url(#clip0_556_901)">
<path d="M244.398 187.488L221.905 177.132V168.229L229.921 168.182C231.165 168.175 232.376 167.761 233.383 166.999C234.39 166.237 235.143 165.165 235.536 163.933L241.168 146.303C241.466 145.369 241.547 144.374 241.405 143.401C241.263 142.427 240.901 141.503 240.349 140.705C239.798 139.906 239.072 139.255 238.232 138.807C237.392 138.358 236.463 138.124 235.519 138.124H221.905V129.839H238.996C240.343 129.839 241.651 129.362 242.705 128.487C243.759 127.611 244.497 126.388 244.799 125.018L248.677 107.412C248.877 106.502 248.878 105.556 248.68 104.645C248.482 103.733 248.09 102.881 247.532 102.15C246.974 101.419 246.266 100.829 245.459 100.423C244.653 100.017 243.769 99.8064 242.874 99.8064H221.905V97.7352C221.905 97.1912 221.803 96.6526 221.603 96.15C221.404 95.6474 221.111 95.1907 220.743 94.8061C220.374 94.4214 219.937 94.1163 219.455 93.9081C218.974 93.6999 218.457 93.5928 217.936 93.5928C217.415 93.5928 216.899 93.6999 216.417 93.9081C215.936 94.1163 215.498 94.4214 215.129 94.8061C214.761 95.1907 214.468 95.6474 214.269 96.15C214.069 96.6526 213.967 97.1912 213.967 97.7352V99.8064H73.3875V97.7352C73.3875 96.6366 72.9693 95.5829 72.2249 94.8061C71.4805 94.0292 70.4709 93.5928 69.4182 93.5928C68.3654 93.5928 67.3558 94.0292 66.6115 94.8061C65.8671 95.5829 65.4489 96.6366 65.4489 97.7352V99.8064H48.7803C47.885 99.8064 47.0013 100.017 46.1949 100.423C45.3884 100.829 44.68 101.419 44.1224 102.15C43.5648 102.881 43.1723 103.733 42.9741 104.645C42.7759 105.556 42.7771 106.502 42.9777 107.412L46.8557 125.018C47.1576 126.388 47.8958 127.611 48.9497 128.487C50.0037 129.362 51.3111 129.839 52.6583 129.839H65.4489V138.124H56.135C55.1966 138.124 54.2715 138.356 53.4352 138.8C52.5988 139.244 51.8749 139.888 51.3224 140.679C50.7699 141.471 50.4045 142.388 50.2561 143.354C50.1076 144.321 50.1802 145.311 50.468 146.243L56.2156 164.859C56.6037 166.116 57.3656 167.211 58.3906 167.986C59.4156 168.761 60.6505 169.174 61.916 169.167L65.4489 169.146V177.132L47.2563 187.488C46.4744 187.488 45.7001 187.649 44.9778 187.961C44.2554 188.273 43.5991 188.731 43.0462 189.308C42.4933 189.885 42.0547 190.57 41.7555 191.324C41.4563 192.078 41.3023 192.886 41.3023 193.702C41.3023 195.35 41.9296 196.93 43.0462 198.096C44.1628 199.261 45.6772 199.916 47.2563 199.916H65.4489V245.482C65.4489 246.581 65.8671 247.635 66.6115 248.412C67.3558 249.188 68.3654 249.625 69.4182 249.625C70.4709 249.625 71.4805 249.188 72.2249 248.412C72.9693 247.635 73.3875 246.581 73.3875 245.482V199.916H213.967V245.482C213.967 246.581 214.385 247.635 215.129 248.412C215.874 249.188 216.883 249.625 217.936 249.625C218.989 249.625 219.998 249.188 220.743 248.412C221.487 247.635 221.905 246.581 221.905 245.482V199.916H244.398C245.977 199.916 247.492 199.261 248.608 198.096C249.725 196.93 250.352 195.35 250.352 193.702C250.352 192.886 250.198 192.078 249.899 191.324C249.6 190.57 249.161 189.885 248.608 189.308C248.055 188.731 247.399 188.273 246.677 187.961C245.954 187.649 245.18 187.488 244.398 187.488ZM73.3875 129.839H213.967V138.124H73.3875V129.839ZM73.3875 177.132V169.1L213.967 168.275V177.132H73.3875Z" fill="#E6E6E6"/>
<path d="M228.134 187.459C230.607 166.709 242.929 146.264 261.891 139.511C254.413 160.869 254.415 184.298 261.896 205.655C264.809 213.88 268.871 222.712 266.13 231.002C264.425 236.16 260.253 240.107 255.59 242.575C250.927 245.042 245.751 246.218 240.64 247.371L239.635 248.239C231.522 229.12 225.661 208.209 228.134 187.459Z" fill="#E6E6E6"/>
<path d="M262.079 139.903C251.149 152.677 244.058 169.177 242.464 186.247C242.119 189.937 242.078 193.712 242.851 197.35C243.624 200.989 245.308 204.043 247.698 206.783C249.882 209.288 252.395 211.586 253.958 214.602C255.605 217.781 255.669 221.392 254.541 224.768C253.161 228.899 250.441 232.266 247.671 235.462C244.596 239.011 241.348 242.647 240.041 247.351C239.883 247.921 239.044 247.632 239.202 247.062C241.477 238.877 249.09 234.227 252.721 226.855C254.416 223.415 255.127 219.421 253.539 215.789C252.15 212.614 249.561 210.241 247.328 207.725C244.983 205.083 243.185 202.184 242.259 198.686C241.312 195.107 241.212 191.322 241.465 187.639C242.098 179.291 243.984 171.098 247.056 163.361C250.514 154.511 255.398 146.344 261.495 139.212C261.873 138.771 262.454 139.465 262.079 139.903L262.079 139.903Z" fill="white"/>
<path d="M242.702 180.67C239.973 179.979 237.569 178.297 235.918 175.927C234.267 173.556 233.478 170.65 233.691 167.728C233.736 167.137 234.618 167.182 234.573 167.774C234.37 170.495 235.106 173.202 236.647 175.406C238.188 177.61 240.434 179.167 242.979 179.795C243.531 179.932 243.251 180.806 242.702 180.67L242.702 180.67Z" fill="white"/>
<path d="M246.43 205.665C251.358 202.594 254.996 197.698 256.619 191.952C256.779 191.382 257.617 191.672 257.457 192.24C255.758 198.217 251.962 203.305 246.827 206.489C246.337 206.792 245.943 205.967 246.43 205.665Z" fill="white"/>
<path d="M251.333 155.384C252.336 155.881 253.441 156.111 254.549 156.052C255.657 155.993 256.734 155.648 257.683 155.048C258.169 154.738 258.563 155.564 258.081 155.871C257.029 156.529 255.839 156.909 254.615 156.977C253.39 157.044 252.169 156.798 251.056 156.259C250.947 156.218 250.858 156.134 250.806 156.026C250.753 155.918 250.743 155.794 250.775 155.677C250.813 155.562 250.892 155.466 250.997 155.411C251.101 155.356 251.222 155.347 251.333 155.384L251.333 155.384Z" fill="white"/>
<path d="M319.69 176.573C319.392 176.775 319.094 176.978 318.796 177.188C314.802 179.928 311.029 183.003 307.512 186.381C307.237 186.638 306.961 186.902 306.693 187.167C298.304 195.4 291.453 205.187 286.488 216.031C284.516 220.347 282.862 224.814 281.539 229.393C279.713 235.716 278.215 242.724 274.601 247.897C274.229 248.441 273.826 248.96 273.393 249.452H240.728C240.653 249.413 240.579 249.382 240.504 249.343L239.2 249.406C239.252 249.164 239.312 248.916 239.364 248.674C239.394 248.534 239.431 248.394 239.461 248.254C239.483 248.161 239.506 248.068 239.52 247.982C239.528 247.951 239.535 247.92 239.543 247.897C239.558 247.811 239.58 247.733 239.595 247.656C239.923 246.263 240.261 244.871 240.609 243.479C240.609 243.471 240.609 243.471 240.616 243.463C243.292 232.862 246.839 222.401 251.795 212.834C251.944 212.546 252.093 212.25 252.257 211.963C254.514 207.663 257.104 203.564 260.001 199.705C261.594 197.597 263.287 195.575 265.076 193.646C269.707 188.671 275.059 184.487 280.936 181.248C292.652 174.792 306.215 172.319 318.736 176.262C319.057 176.363 319.37 176.464 319.69 176.573Z" fill="#E6E6E6"/>
<path d="M319.617 177.006C303.521 180.337 288.34 189.056 277.219 201.684C274.815 204.414 272.604 207.402 271.123 210.792C269.641 214.183 269.223 217.68 269.551 221.369C269.85 224.742 270.53 228.156 270.038 231.546C269.52 235.119 267.487 238.042 264.639 240.029C261.154 242.46 257.04 243.44 252.984 244.251C248.482 245.153 243.791 246.014 240.033 248.95C239.578 249.305 239.076 248.547 239.53 248.192C246.069 243.085 254.83 244.157 261.983 240.552C265.32 238.87 268.192 236.128 269.019 232.23C269.742 228.822 269.043 225.301 268.712 221.889C268.364 218.306 268.601 214.861 269.88 211.486C271.188 208.034 273.292 204.95 275.619 202.167C280.94 195.899 287.173 190.543 294.088 186.296C301.955 181.403 310.566 177.95 319.549 176.087C320.105 175.972 320.169 176.892 319.617 177.006H319.617Z" fill="white"/>
<path d="M280.627 197.38C278.847 195.114 277.897 192.261 277.947 189.331C277.996 186.401 279.042 183.584 280.898 181.385C281.275 180.941 281.953 181.532 281.576 181.976C279.844 184.021 278.87 186.644 278.829 189.373C278.788 192.101 279.683 194.755 281.353 196.855C281.715 197.312 280.987 197.834 280.627 197.38Z" fill="white"/>
<path d="M269.183 219.68C274.89 220.324 280.62 218.701 285.23 215.132C285.687 214.778 286.189 215.536 285.733 215.89C280.928 219.594 274.962 221.271 269.025 220.587C268.46 220.521 268.62 219.615 269.183 219.68V219.68Z" fill="white"/>
<path d="M302.106 182.614C302.619 183.641 303.369 184.519 304.288 185.168C305.207 185.818 306.266 186.219 307.37 186.336C307.936 186.394 307.775 187.3 307.212 187.243C305.993 187.108 304.824 186.663 303.807 185.948C302.79 185.232 301.957 184.268 301.38 183.139C301.317 183.037 301.293 182.915 301.314 182.796C301.335 182.676 301.398 182.57 301.491 182.498C301.588 182.429 301.706 182.403 301.821 182.424C301.937 182.446 302.039 182.514 302.106 182.614Z" fill="white"/>
<path d="M7.66802 205.884C9.40573 191.301 18.0656 176.933 31.3918 172.188C26.1363 187.197 26.1375 203.663 31.395 218.672C33.4427 224.453 36.2971 230.66 34.3709 236.486C33.1725 240.111 30.2407 242.884 26.9635 244.619C23.6861 246.353 20.0489 247.179 16.4573 247.989L15.7504 248.6C10.0487 235.163 5.9303 220.467 7.66802 205.884Z" fill="#E6E6E6"/>
<path d="M31.524 172.463C23.7635 181.538 18.94 192.934 17.7389 205.033C17.4967 207.626 17.4672 210.279 18.0105 212.836C18.5584 215.323 19.7346 217.613 21.4168 219.465C22.9521 221.226 24.7179 222.841 25.8165 224.96C26.9744 227.194 27.0189 229.732 26.2262 232.105C25.2563 235.008 23.3447 237.374 21.3983 239.621C19.2371 242.115 16.9545 244.669 16.0359 247.976C15.9246 248.376 15.3354 248.173 15.4466 247.773C17.0449 242.02 22.3957 238.753 24.9475 233.571C26.1383 231.154 26.638 228.347 25.5218 225.795C24.5456 223.563 22.7261 221.896 21.1568 220.127C19.509 218.27 18.2456 216.233 17.5947 213.774C16.9289 211.26 16.859 208.6 17.0366 206.011C17.4813 200.144 18.8072 194.386 20.9657 188.949C23.3962 182.729 26.8282 176.989 31.1134 171.978C31.3787 171.667 31.7876 172.155 31.524 172.463V172.463Z" fill="white"/>
<path d="M17.906 201.113C15.9883 200.627 14.2985 199.446 13.1385 197.78C11.9785 196.114 11.4237 194.072 11.5732 192.018C11.6048 191.603 12.2248 191.634 12.1932 192.05C12.0506 193.962 12.5675 195.865 13.6508 197.414C14.7341 198.963 16.3123 200.057 18.1005 200.498C18.489 200.595 18.2922 201.209 17.906 201.113Z" fill="white"/>
<path d="M20.5258 218.68C23.9893 216.521 26.5461 213.08 27.6864 209.042C27.7991 208.642 28.3882 208.845 28.2757 209.245C27.0816 213.445 24.4139 217.02 20.8049 219.258C20.4607 219.471 20.1835 218.892 20.5258 218.68V218.68Z" fill="white"/>
<path d="M23.9719 183.343C24.6764 183.693 25.453 183.854 26.2319 183.813C27.0108 183.772 27.7678 183.529 28.4347 183.107C28.7761 182.889 29.053 183.469 28.7138 183.686C27.9749 184.149 27.1386 184.416 26.2781 184.463C25.4176 184.511 24.559 184.338 23.7774 183.959C23.7008 183.93 23.6378 183.871 23.6012 183.795C23.5645 183.719 23.5569 183.631 23.58 183.549C23.6062 183.468 23.662 183.401 23.7354 183.362C23.8088 183.324 23.8938 183.317 23.9719 183.343Z" fill="white"/>
<path d="M72.0121 198.234C71.8026 198.376 71.5931 198.518 71.3834 198.666C68.5769 200.592 65.9249 202.753 63.4537 205.127C63.2599 205.307 63.066 205.493 62.8775 205.679C56.9822 211.465 52.1675 218.344 48.6782 225.964C47.2923 228.998 46.1297 232.137 45.2003 235.355C43.9169 239.799 42.8643 244.724 40.3239 248.359C40.063 248.741 39.7796 249.107 39.4753 249.452H16.5184C16.4663 249.425 16.4138 249.403 16.3614 249.376L15.4448 249.42C15.4816 249.25 15.5233 249.075 15.5602 248.906C15.5811 248.807 15.6072 248.709 15.6282 248.611C15.6438 248.545 15.6596 248.479 15.6701 248.419C15.6752 248.397 15.6806 248.375 15.6857 248.359C15.6962 248.299 15.7121 248.244 15.7226 248.19C15.953 247.211 16.1904 246.233 16.4348 245.254C16.4348 245.249 16.4348 245.249 16.4399 245.243C18.3204 237.793 20.8135 230.441 24.2965 223.718C24.4014 223.515 24.506 223.308 24.6213 223.105C26.2074 220.084 28.0275 217.203 30.0634 214.491C31.1827 213.009 32.3732 211.588 33.6303 210.232C36.8848 206.736 40.646 203.796 44.776 201.519C53.0098 196.982 62.5422 195.244 71.3417 198.016C71.5668 198.087 71.787 198.158 72.0121 198.234Z" fill="#E6E6E6"/>
<path d="M71.9604 198.538C60.5287 200.908 50.1031 206.976 42.1643 215.881C40.4747 217.8 38.9206 219.9 37.8796 222.282C36.8819 224.613 36.5004 227.18 36.7748 229.716C36.985 232.086 37.4631 234.485 37.1176 236.868C36.7534 239.379 35.3247 241.433 33.323 242.83C30.8737 244.538 27.9823 245.227 25.1323 245.797C21.9679 246.431 18.6715 247.036 16.0306 249.099C15.7106 249.349 15.3577 248.816 15.6772 248.567C20.272 244.978 26.4295 245.731 31.4561 243.197C33.8016 242.015 35.8199 240.088 36.401 237.349C36.9091 234.954 36.4181 232.479 36.1853 230.081C35.9409 227.563 36.1075 225.142 37.0061 222.771C37.9253 220.344 39.404 218.177 41.0392 216.221C44.779 211.816 49.1592 208.052 54.0194 205.067C59.5482 201.628 65.5999 199.202 71.9127 197.892C72.3035 197.811 72.3486 198.458 71.9604 198.538H71.9604Z" fill="white"/>
<path d="M44.5589 212.857C43.308 211.264 42.6405 209.259 42.6754 207.2C42.7103 205.141 43.4454 203.162 44.7495 201.616C45.0144 201.304 45.4911 201.719 45.2259 202.031C44.009 203.468 43.3244 205.312 43.2956 207.229C43.2668 209.147 43.8958 211.012 45.069 212.488C45.3236 212.809 44.812 213.176 44.5589 212.857Z" fill="white"/>
<path d="M36.5165 228.529C40.5271 228.982 44.5539 227.841 47.794 225.333C48.1149 225.084 48.4678 225.617 48.1474 225.865C44.771 228.468 40.5781 229.647 36.4056 229.166C36.008 229.12 36.121 228.483 36.5165 228.529Z" fill="white"/>
<path d="M59.654 202.48C60.0149 203.201 60.5419 203.818 61.1877 204.275C61.8334 204.731 62.5777 205.013 63.3537 205.095C63.7517 205.136 63.6382 205.773 63.2428 205.732C62.3859 205.637 61.5643 205.325 60.8497 204.822C60.1352 204.32 59.5495 203.642 59.1438 202.849C59.0996 202.777 59.0831 202.691 59.0976 202.607C59.1122 202.523 59.1567 202.449 59.2222 202.398C59.29 202.349 59.3734 202.331 59.4542 202.346C59.5351 202.361 59.6069 202.41 59.654 202.48Z" fill="white"/>
<path d="M122.127 241.749L116.21 243.536L106.791 220.567L115.524 217.93L122.127 241.749Z" fill="#9E616A"/>
<path d="M136.279 158.507L130.174 165.303C130.174 165.303 98.0222 180.169 98.0222 187.814C98.0222 195.46 105.755 228.589 109.011 231.138C110.972 232.681 110.085 234.343 111.058 236.697L122.441 232.412C122.441 232.412 121.627 229.863 122.441 228.589C123.255 227.315 122.441 226.466 122.441 226.466C122.441 226.466 121.22 226.89 121.627 225.616C122.034 224.342 122.034 223.917 121.627 223.492C121.22 223.068 119.999 219.245 119.999 219.245C119.999 219.245 120.406 203.954 114.709 198.433C114.709 198.433 141.163 190.363 144.419 184.841C147.675 179.32 148.488 159.357 148.488 159.357L136.279 158.507Z" fill="#2F2E41"/>
<path d="M124.54 245.27L104.822 249.517L104.77 249.257C104.35 247.133 104.756 244.921 105.898 243.109C107.041 241.297 108.826 240.033 110.861 239.594L110.861 239.594L113.899 235.967L121.183 237.371L122.904 237L124.54 245.27Z" fill="#2F2E41"/>
<path d="M143.654 215.952L136.102 221.235L151.768 240.127L156.885 236.547L143.654 215.952Z" fill="#9E616A"/>
<path d="M154.933 146.799C150.899 137.924 163.194 164.168 161.566 172.296C160.295 178.642 136.555 198.848 136.555 198.848C143.708 202.029 148.288 216.56 148.288 216.56C148.288 216.56 150.678 219.724 151.199 219.98C151.719 220.236 151.857 220.636 151.888 221.978C151.919 223.321 152.93 222.49 152.93 222.49C152.93 222.49 153.971 223.001 153.619 224.488C153.267 225.975 154.86 228.085 154.86 228.085L146.06 236.646C144.381 234.776 144.156 232.393 141.81 231.634C137.919 230.387 119.89 201.95 117.408 194.757C114.926 187.564 140.352 162.21 140.352 162.21L142.511 149.661L154.933 146.799Z" fill="#2F2E41"/>
<path d="M159.464 242.883L140.521 250L140.435 249.75C139.731 247.709 139.832 245.46 140.717 243.498C141.602 241.535 143.198 240.02 145.153 239.285L145.154 239.285L147.669 235.245L155.07 235.559L156.723 234.938L159.464 242.883Z" fill="#2F2E41"/>
<path d="M140.497 104.404L135.014 108.761L120.447 112.787C120.447 112.787 125.667 151.016 123.203 153.587C120.74 156.157 122.962 156.226 122.467 159.566C121.972 162.906 120.768 169.752 120.768 169.752C137.396 178.938 151.731 179.184 163.246 168.435C163.393 167.77 163.319 167.073 163.034 166.458C162.749 165.844 162.272 165.349 161.681 165.057C159.538 163.87 163.657 158.331 161.905 157.405C160.154 156.479 162.617 148.445 162.617 148.445L167.956 122.142L153.756 110.548L151.597 105.117L140.497 104.404Z" fill="#055EB0"/>
<path d="M147.339 138.564C148.387 138.564 149.236 137.678 149.236 136.584C149.236 135.491 148.387 134.604 147.339 134.604C146.291 134.604 145.442 135.491 145.442 136.584C145.442 137.678 146.291 138.564 147.339 138.564Z" fill="#F2F2F2"/>
<path d="M146.111 101.978C152.101 101.978 156.957 96.9102 156.957 90.6586C156.957 84.4069 152.101 79.339 146.111 79.339C140.12 79.339 135.264 84.4069 135.264 90.6586C135.264 96.9102 140.12 101.978 146.111 101.978Z" fill="#9E616A"/>
<path opacity="0.1" d="M161.905 135.005L163.698 136.408L164.595 129.86L161.905 135.005Z" fill="black"/>
<path d="M121.306 112.75C121.306 112.75 119.065 112.282 117.721 116.492C116.376 120.702 109.627 142.87 109.627 145.676C109.627 148.483 142.149 154.601 142.149 154.601L138.955 142.905L124.181 138.082L121.306 112.75Z" fill="#055EB0"/>
<path d="M143.573 152.867C146.465 152.867 148.808 150.421 148.808 147.404C148.808 144.387 146.465 141.941 143.573 141.941C140.682 141.941 138.339 144.387 138.339 147.404C138.339 150.421 140.682 152.867 143.573 152.867Z" fill="#9E616A"/>
<path opacity="0.1" d="M125.144 132.515L125.554 138.309L138.558 145.432L126.991 137.335L125.144 132.515Z" fill="black"/>
<path d="M155.744 130.234H155.575V125.411C155.575 125.044 155.506 124.681 155.371 124.343C155.237 124.004 155.04 123.696 154.791 123.437C154.543 123.178 154.248 122.972 153.924 122.832C153.599 122.692 153.251 122.619 152.9 122.619H143.109C142.758 122.619 142.41 122.692 142.085 122.832C141.761 122.972 141.466 123.178 141.218 123.437C140.969 123.696 140.772 124.004 140.638 124.343C140.503 124.681 140.434 125.044 140.434 125.411V151.87C140.434 152.237 140.503 152.6 140.638 152.938C140.772 153.277 140.969 153.585 141.218 153.844C141.466 154.103 141.761 154.309 142.085 154.449C142.41 154.589 142.758 154.662 143.109 154.662H152.9C153.251 154.662 153.599 154.589 153.924 154.449C154.248 154.309 154.543 154.103 154.791 153.844C155.04 153.585 155.237 153.277 155.371 152.938C155.506 152.6 155.575 152.237 155.575 151.87V133.667H155.744V130.234Z" fill="#F0F0F0"/>
<path d="M167.956 122.142C167.956 122.142 169.301 123.077 170.197 127.287C171.093 131.497 176.92 147.4 174.679 151.142C172.438 154.884 171.776 158.878 164.157 153.265L153.614 143.191L161.233 135.707L164.37 138.045L167.956 122.142Z" fill="#055EB0"/>
<path d="M148.124 134.412C149.362 134.412 150.365 133.365 150.365 132.074C150.365 130.782 149.362 129.735 148.124 129.735C146.886 129.735 145.883 130.782 145.883 132.074C145.883 133.365 146.886 134.412 148.124 134.412Z" fill="#055EB0"/>
<path d="M154.611 142.66C157.502 142.66 159.846 140.214 159.846 137.197C159.846 134.18 157.502 131.734 154.611 131.734C151.72 131.734 149.377 134.18 149.377 137.197C149.377 140.214 151.72 142.66 154.611 142.66Z" fill="#9E616A"/>
<path opacity="0.1" d="M123.337 150.806L139.488 153.962L123.763 154.592L123.337 150.806Z" fill="black"/>
<path d="M155.661 83.1807C155.661 83.1807 158.485 77.5465 152.272 77.0343C152.272 77.0343 146.975 72.02 141.576 76.1176C141.576 76.1176 138.632 76.1176 137.021 79.5953C137.021 79.5953 134.705 78.6786 134.196 81.1319C134.196 81.1319 132.501 86.2539 134.196 90.8637C135.891 95.4735 136.454 95.9857 136.454 95.9857C136.454 95.9857 135.265 90.2652 142.043 89.753C148.822 89.2408 155.04 84.8092 155.605 90.4434C156.17 96.0776 156.791 93.5324 156.791 93.5324C156.791 93.5324 162.156 85.4856 155.661 83.1807Z" fill="#2F2E41"/>
<path d="M261.008 71.0244H173.201C171.854 71.0244 170.563 71.5825 169.611 72.5759C168.66 73.5693 168.125 74.9167 168.125 76.3216V98.3606C168.125 99.7655 168.66 101.113 169.611 102.106C170.563 103.1 171.854 103.658 173.201 103.658H174.489V107.64C174.489 107.881 174.558 108.117 174.687 108.318C174.815 108.519 174.998 108.676 175.212 108.768C175.426 108.861 175.661 108.885 175.888 108.838C176.115 108.791 176.324 108.674 176.488 108.503L181.131 103.658H261.008C262.354 103.658 263.645 103.1 264.597 102.106C265.549 101.113 266.084 99.7655 266.084 98.3606V76.3216C266.084 75.6259 265.952 74.9371 265.697 74.2944C265.442 73.6518 265.068 73.0678 264.597 72.5759C264.126 72.084 263.566 71.6938 262.95 71.4276C262.335 71.1614 261.675 71.0244 261.008 71.0244Z" fill="#3F3D56"/>
<path d="M261.008 100.97H173.201C172.538 100.969 171.902 100.694 171.434 100.205C170.965 99.7156 170.701 99.0524 170.701 98.3607V76.3215C170.701 75.6298 170.965 74.9666 171.434 74.4775C171.902 73.9884 172.538 73.7133 173.201 73.7125H239.89C246.152 73.72 252.155 76.3192 256.583 80.94C261.01 85.5609 263.501 91.8259 263.508 98.3607C263.507 99.0524 263.244 99.7156 262.775 100.205C262.306 100.694 261.671 100.969 261.008 100.97Z" fill="white"/>
<path d="M235.962 78.533H198.431C197.639 78.533 196.996 79.2036 196.996 80.0308V80.5006C196.996 81.3279 197.639 81.9985 198.431 81.9985H235.962C236.754 81.9985 237.397 81.3279 237.397 80.5006V80.0308C237.397 79.2036 236.754 78.533 235.962 78.533Z" fill="#055EB0"/>
<path d="M243.848 85.464H190.545C189.752 85.464 189.109 86.1346 189.109 86.9618V87.4316C189.109 88.2589 189.752 88.9295 190.545 88.9295H243.848C244.641 88.9295 245.284 88.2589 245.284 87.4316V86.9618C245.284 86.1346 244.641 85.464 243.848 85.464Z" fill="#E6E6E6"/>
<path d="M243.848 92.3949H190.545C189.752 92.3949 189.109 93.0655 189.109 93.8927V94.3626C189.109 95.1898 189.752 95.8604 190.545 95.8604H243.848C244.641 95.8604 245.284 95.1898 245.284 94.3626V93.8927C245.284 93.0655 244.641 92.3949 243.848 92.3949Z" fill="#E6E6E6"/>
<path d="M316.044 0H247.601C247.082 -4.53327e-07 246.567 0.106797 246.087 0.314295C245.607 0.521793 245.171 0.825928 244.804 1.20934C244.436 1.59274 244.145 2.04791 243.946 2.54886C243.747 3.0498 243.645 3.58671 243.645 4.12893V21.3075C243.645 21.8497 243.747 22.3867 243.946 22.8876C244.145 23.3885 244.436 23.8437 244.804 24.2271C245.171 24.6105 245.607 24.9147 246.087 25.1222C246.567 25.3297 247.082 25.4365 247.601 25.4365H248.606V28.5401C248.606 28.7284 248.659 28.9125 248.76 29.0691C248.86 29.2257 249.002 29.3477 249.169 29.4198C249.336 29.4919 249.519 29.5107 249.696 29.474C249.873 29.4372 250.036 29.3465 250.163 29.2134L253.782 25.4365H316.044C316.563 25.4365 317.078 25.3297 317.558 25.1222C318.038 24.9147 318.474 24.6105 318.841 24.2271C319.209 23.8437 319.5 23.3885 319.699 22.8876C319.898 22.3867 320 21.8497 320 21.3075V4.12893C320 3.58671 319.898 3.0498 319.699 2.54886C319.5 2.04791 319.209 1.59274 318.841 1.20934C318.474 0.825928 318.038 0.521793 317.558 0.314295C317.078 0.106797 316.563 -4.53327e-07 316.044 0Z" fill="#F2F2F2"/>
<path d="M316.044 23.3412H247.601C247.085 23.3406 246.589 23.1262 246.224 22.7449C245.859 22.3637 245.653 21.8468 245.653 21.3076V4.12895C245.653 3.58979 245.859 3.07288 246.224 2.69163C246.589 2.31039 247.085 2.09594 247.601 2.09534H299.583C304.464 2.10113 309.143 4.12715 312.594 7.72891C316.046 11.3307 317.987 16.214 317.992 21.3076C317.992 21.8468 317.786 22.3637 317.421 22.7449C317.056 23.1262 316.56 23.3406 316.044 23.3412Z" fill="white"/>
<path d="M296.346 5.85266H267.443C266.728 5.85266 266.149 6.45735 266.149 7.20327V7.20327C266.149 7.94919 266.728 8.55388 267.443 8.55388H296.346C297.06 8.55388 297.64 7.94919 297.64 7.20327C297.64 6.45735 297.06 5.85266 296.346 5.85266Z" fill="#F2F2F2"/>
<path d="M302.493 11.2551H261.296C260.581 11.2551 260.002 11.8598 260.002 12.6057V12.6057C260.002 13.3517 260.581 13.9563 261.296 13.9563H302.493C303.208 13.9563 303.787 13.3517 303.787 12.6057C303.787 11.8598 303.208 11.2551 302.493 11.2551Z" fill="#F2F2F2"/>
<path d="M302.493 16.6575H261.296C260.581 16.6575 260.002 17.2622 260.002 18.0081V18.0081C260.002 18.754 260.581 19.3587 261.296 19.3587H302.493C303.208 19.3587 303.787 18.754 303.787 18.0081C303.787 17.2622 303.208 16.6575 302.493 16.6575Z" fill="#F2F2F2"/>
<path d="M162.934 28.3068H231.377C231.896 28.3068 232.411 28.4136 232.891 28.6211C233.371 28.8286 233.807 29.1327 234.174 29.5161C234.542 29.8995 234.833 30.3547 235.032 30.8556C235.231 31.3566 235.333 31.8935 235.333 32.4357V49.6143C235.333 50.1565 235.231 50.6934 235.032 51.1944C234.833 51.6953 234.542 52.1505 234.174 52.5339C233.807 52.9173 233.371 53.2214 232.891 53.4289C232.411 53.6364 231.896 53.7432 231.377 53.7432H230.372V56.8468C230.372 57.0352 230.318 57.2193 230.218 57.3759C230.118 57.5324 229.975 57.6545 229.809 57.7266C229.642 57.7986 229.459 57.8175 229.282 57.7807C229.105 57.744 228.942 57.6533 228.814 57.5201L225.195 53.7432H162.934C162.415 53.7432 161.9 53.6364 161.42 53.4289C160.94 53.2214 160.504 52.9173 160.137 52.5339C159.769 52.1505 159.478 51.6953 159.279 51.1944C159.08 50.6934 158.978 50.1565 158.978 49.6143V32.4357C158.978 31.8935 159.08 31.3566 159.279 30.8556C159.478 30.3547 159.769 29.8995 160.137 29.5161C160.504 29.1327 160.94 28.8286 161.42 28.6211C161.9 28.4136 162.415 28.3068 162.934 28.3068Z" fill="#F2F2F2"/>
<path d="M160.985 49.6143C160.991 44.5207 162.932 39.6373 166.383 36.0356C169.835 32.4338 174.514 30.4078 179.394 30.402H231.377C231.893 30.4026 232.389 30.617 232.754 30.9983C233.119 31.3795 233.325 31.8964 233.325 32.4356V49.6143C233.325 50.1534 233.119 50.6703 232.754 51.0516C232.389 51.4328 231.893 51.6473 231.377 51.6479H162.934C162.417 51.6473 161.922 51.4328 161.557 51.0516C161.192 50.6703 160.986 50.1534 160.985 49.6143Z" fill="white"/>
<path d="M182.632 36.8606L211.535 36.8606C212.25 36.8606 212.829 36.2559 212.829 35.51C212.829 34.7641 212.25 34.1594 211.535 34.1594L182.632 34.1594C181.917 34.1594 181.338 34.7641 181.338 35.51C181.338 36.2559 181.917 36.8606 182.632 36.8606Z" fill="#F2F2F2"/>
<path d="M176.485 42.2629L217.682 42.2629C218.397 42.2629 218.976 41.6583 218.976 40.9123V40.9123C218.976 40.1664 218.397 39.5617 217.682 39.5617L176.485 39.5617C175.77 39.5617 175.191 40.1664 175.191 40.9123C175.191 41.6583 175.77 42.2629 176.485 42.2629Z" fill="#F2F2F2"/>
<path d="M176.485 47.6654L217.682 47.6654C218.397 47.6654 218.976 47.0607 218.976 46.3148C218.976 45.5689 218.397 44.9642 217.682 44.9642L176.485 44.9642C175.77 44.9642 175.191 45.5689 175.191 46.3148C175.191 47.0607 175.77 47.6654 176.485 47.6654Z" fill="#F2F2F2"/>
<path d="M284.627 249.975H0.393845C0.28939 249.975 0.189215 249.932 0.115354 249.855C0.0414937 249.778 0 249.673 0 249.564C0 249.455 0.0414937 249.35 0.115354 249.273C0.189215 249.196 0.28939 249.153 0.393845 249.153H284.627C284.731 249.153 284.831 249.196 284.905 249.273C284.979 249.35 285.021 249.455 285.021 249.564C285.021 249.673 284.979 249.778 284.905 249.855C284.831 249.932 284.731 249.975 284.627 249.975Z" fill="#CCCCCC"/>
</g>
<defs>
<clipPath id="clip0_556_901">
<rect width="320" height="250" fill="white"/>
</clipPath>
</defs>
</svg>
