<svg width="100" height="100" viewBox="0 0 100 100" fill="none" xmlns="http://www.w3.org/2000/svg">
    <path d="M43.8948 77.084C43.8948 77.78 43.6548 78.36 43.1748 78.824C42.7028 79.28 41.9788 79.508 41.0028 79.508H39.3948V83H38.3028V74.636H41.0028C41.9468 74.636 42.6628 74.864 43.1508 75.32C43.6468 75.776 43.8948 76.364 43.8948 77.084ZM41.0028 78.608C41.6108 78.608 42.0588 78.476 42.3468 78.212C42.6348 77.948 42.7788 77.572 42.7788 77.084C42.7788 76.052 42.1868 75.536 41.0028 75.536H39.3948V78.608H41.0028ZM51.3224 79.46C51.3224 79.668 51.3104 79.888 51.2864 80.12H46.0304C46.0704 80.768 46.2904 81.276 46.6904 81.644C47.0984 82.004 47.5904 82.184 48.1664 82.184C48.6384 82.184 49.0304 82.076 49.3424 81.86C49.6624 81.636 49.8864 81.34 50.0144 80.972H51.1904C51.0144 81.604 50.6624 82.12 50.1344 82.52C49.6064 82.912 48.9504 83.108 48.1664 83.108C47.5424 83.108 46.9824 82.968 46.4864 82.688C45.9984 82.408 45.6144 82.012 45.3344 81.5C45.0544 80.98 44.9144 80.38 44.9144 79.7C44.9144 79.02 45.0504 78.424 45.3224 77.912C45.5944 77.4 45.9744 77.008 46.4624 76.736C46.9584 76.456 47.5264 76.316 48.1664 76.316C48.7904 76.316 49.3424 76.452 49.8224 76.724C50.3024 76.996 50.6704 77.372 50.9264 77.852C51.1904 78.324 51.3224 78.86 51.3224 79.46ZM50.1944 79.232C50.1944 78.816 50.1024 78.46 49.9184 78.164C49.7344 77.86 49.4824 77.632 49.1624 77.48C48.8504 77.32 48.5024 77.24 48.1184 77.24C47.5664 77.24 47.0944 77.416 46.7024 77.768C46.3184 78.12 46.0984 78.608 46.0424 79.232H50.1944ZM54.1662 77.324V81.2C54.1662 81.52 54.2342 81.748 54.3702 81.884C54.5062 82.012 54.7422 82.076 55.0782 82.076H55.8822V83H54.8982C54.2902 83 53.8342 82.86 53.5302 82.58C53.2262 82.3 53.0742 81.84 53.0742 81.2V77.324H52.2222V76.424H53.0742V74.768H54.1662V76.424H55.8822V77.324H54.1662ZM59.6037 83.108C59.0997 83.108 58.6477 83.024 58.2477 82.856C57.8477 82.68 57.5317 82.44 57.2997 82.136C57.0677 81.824 56.9397 81.468 56.9157 81.068H58.0437C58.0757 81.396 58.2277 81.664 58.4997 81.872C58.7797 82.08 59.1437 82.184 59.5917 82.184C60.0077 82.184 60.3357 82.092 60.5757 81.908C60.8157 81.724 60.9357 81.492 60.9357 81.212C60.9357 80.924 60.8077 80.712 60.5517 80.576C60.2957 80.432 59.8997 80.292 59.3637 80.156C58.8757 80.028 58.4757 79.9 58.1637 79.772C57.8597 79.636 57.5957 79.44 57.3717 79.184C57.1557 78.92 57.0477 78.576 57.0477 78.152C57.0477 77.816 57.1477 77.508 57.3477 77.228C57.5477 76.948 57.8317 76.728 58.1997 76.568C58.5677 76.4 58.9877 76.316 59.4597 76.316C60.1877 76.316 60.7757 76.5 61.2237 76.868C61.6717 77.236 61.9117 77.74 61.9437 78.38H60.8517C60.8277 78.036 60.6877 77.76 60.4317 77.552C60.1837 77.344 59.8477 77.24 59.4237 77.24C59.0317 77.24 58.7197 77.324 58.4877 77.492C58.2557 77.66 58.1397 77.88 58.1397 78.152C58.1397 78.368 58.2077 78.548 58.3437 78.692C58.4877 78.828 58.6637 78.94 58.8717 79.028C59.0877 79.108 59.3837 79.2 59.7597 79.304C60.2317 79.432 60.6157 79.56 60.9117 79.688C61.2077 79.808 61.4597 79.992 61.6677 80.24C61.8837 80.488 61.9957 80.812 62.0037 81.212C62.0037 81.572 61.9037 81.896 61.7037 82.184C61.5037 82.472 61.2197 82.7 60.8517 82.868C60.4917 83.028 60.0757 83.108 59.6037 83.108Z" fill="#055EB0"/>
    <path d="M50 52V55.75" stroke="#055EB0" stroke-width="2" stroke-linecap="round" stroke-linejoin="round"/>
    <path d="M44.375 45.75C45.4105 45.75 46.25 44.9105 46.25 43.875C46.25 42.8395 45.4105 42 44.375 42C43.3395 42 42.5 42.8395 42.5 43.875C42.5 44.9105 43.3395 45.75 44.375 45.75Z" fill="#055EB0"/>
    <path d="M55.625 45.75C56.6605 45.75 57.5 44.9105 57.5 43.875C57.5 42.8395 56.6605 42 55.625 42C54.5895 42 53.75 42.8395 53.75 43.875C53.75 44.9105 54.5895 45.75 55.625 45.75Z" fill="#055EB0"/>
    <path d="M52.5 49.5L50 52L47.5 49.5" stroke="#055EB0" stroke-width="2" stroke-linecap="round" stroke-linejoin="round"/>
    <path d="M53.75 29.4999L62.4628 27.3217C62.6281 27.2804 62.8001 27.2733 62.9683 27.3009C63.1365 27.3285 63.2973 27.3902 63.4407 27.4822C63.5842 27.5742 63.7073 27.6946 63.8025 27.8359C63.8978 27.9772 63.9631 28.1366 63.9945 28.3041L66.5599 41.9862C66.8009 43.2714 65.1563 44.017 64.3484 42.9889L53.75 29.4999Z" stroke="#055EB0" stroke-width="2" stroke-linecap="round" stroke-linejoin="round"/>
    <path d="M46.2498 29.4999L37.537 27.3217C37.3717 27.2804 37.1997 27.2733 37.0315 27.3009C36.8633 27.3285 36.7025 27.3902 36.5591 27.4822C36.4156 27.5742 36.2925 27.6946 36.1972 27.8359C36.102 27.9772 36.0367 28.1366 36.0053 28.3041L33.4399 41.9862C33.1989 43.2714 34.8435 44.017 35.6514 42.9889L46.2498 29.4999Z" stroke="#055EB0" stroke-width="2" stroke-linecap="round" stroke-linejoin="round"/>
    <path d="M46.25 29.5H53.75" stroke="#055EB0" stroke-width="2" stroke-linecap="round" stroke-linejoin="round"/>
    <path d="M62.5 40.6364V50.75C62.5 52.0761 61.9732 53.3478 61.0355 54.2855C60.0979 55.2232 58.8261 55.75 57.5 55.75H42.5C41.1739 55.75 39.9021 55.2232 38.9645 54.2855C38.0268 53.3478 37.5 52.0761 37.5 50.75V40.6364" stroke="#055EB0" stroke-width="2" stroke-linecap="round" stroke-linejoin="round"/>
    <path d="M8 1H92V-1H8V1ZM99 8V92H101V8H99ZM92 99H8V101H92V99ZM1 92V8H-1V92H1ZM8 99C4.13401 99 1 95.866 1 92H-1C-1 96.9706 3.02944 101 8 101V99ZM99 92C99 95.866 95.866 99 92 99V101C96.9706 101 101 96.9706 101 92H99ZM92 1C95.866 1 99 4.13401 99 8H101C101 3.02944 96.9706 -1 92 -1V1ZM8 -1C3.02944 -1 -1 3.02944 -1 8H1C1 4.13401 4.13401 1 8 1V-1Z" fill="#055EB0"/>
</svg>
