<svg width="24" height="24" viewBox="0 0 24 24" fill="none" xmlns="http://www.w3.org/2000/svg">
    <path d="M12.0001 10.125L12.0001 20.25" stroke="#9E9E9E" stroke-width="2" stroke-linecap="round" stroke-linejoin="round"/>
    <path d="M12.0001 3.75L12.0001 6.375" stroke="#9E9E9E" stroke-width="2" stroke-linecap="round" stroke-linejoin="round"/>
    <path d="M12.0001 10.125C13.0356 10.125 13.8751 9.28553 13.8751 8.25C13.8751 7.21447 13.0356 6.375 12.0001 6.375C10.9646 6.375 10.1251 7.21447 10.1251 8.25C10.1251 9.28553 10.9646 10.125 12.0001 10.125Z" stroke="#9E9E9E" stroke-width="2" stroke-linecap="round" stroke-linejoin="round"/>
    <path d="M18.7501 17.625L18.7502 20.25" stroke="#9E9E9E" stroke-width="2" stroke-linecap="round" stroke-linejoin="round"/>
    <path d="M18.7502 3.75L18.7501 13.875" stroke="#9E9E9E" stroke-width="2" stroke-linecap="round" stroke-linejoin="round"/>
    <path d="M18.7501 17.625C19.7856 17.625 20.6251 16.7855 20.6251 15.75C20.6251 14.7145 19.7856 13.875 18.7501 13.875C17.7146 13.875 16.8751 14.7145 16.8751 15.75C16.8751 16.7855 17.7146 17.625 18.7501 17.625Z" stroke="#9E9E9E" stroke-width="2" stroke-linecap="round" stroke-linejoin="round"/>
    <path d="M5.25009 14.625L5.25003 20.25" stroke="#9E9E9E" stroke-width="2" stroke-linecap="round" stroke-linejoin="round"/>
    <path d="M5.25003 3.75L5.25009 10.875" stroke="#9E9E9E" stroke-width="2" stroke-linecap="round" stroke-linejoin="round"/>
    <path d="M5.25009 14.625C6.28563 14.625 7.12509 13.7855 7.12509 12.75C7.12509 11.7145 6.28563 10.875 5.25009 10.875C4.21456 10.875 3.37509 11.7145 3.37509 12.75C3.37509 13.7855 4.21456 14.625 5.25009 14.625Z" stroke="#9E9E9E" stroke-width="2" stroke-linecap="round" stroke-linejoin="round"/>
</svg>
