<svg width="100" height="100" viewBox="0 0 100 100" fill="none" xmlns="http://www.w3.org/2000/svg">
    <path d="M41.5172 74.636V75.524H39.2372V83H38.1452V75.524H35.8532V74.636H41.5172ZM48.9318 79.46C48.9318 79.668 48.9198 79.888 48.8958 80.12H43.6398C43.6798 80.768 43.8998 81.276 44.2998 81.644C44.7078 82.004 45.1998 82.184 45.7758 82.184C46.2478 82.184 46.6398 82.076 46.9518 81.86C47.2718 81.636 47.4958 81.34 47.6238 80.972H48.7998C48.6238 81.604 48.2718 82.12 47.7438 82.52C47.2158 82.912 46.5598 83.108 45.7758 83.108C45.1518 83.108 44.5918 82.968 44.0958 82.688C43.6078 82.408 43.2238 82.012 42.9438 81.5C42.6638 80.98 42.5238 80.38 42.5238 79.7C42.5238 79.02 42.6598 78.424 42.9318 77.912C43.2038 77.4 43.5838 77.008 44.0718 76.736C44.5678 76.456 45.1358 76.316 45.7758 76.316C46.3998 76.316 46.9518 76.452 47.4318 76.724C47.9118 76.996 48.2798 77.372 48.5358 77.852C48.7998 78.324 48.9318 78.86 48.9318 79.46ZM47.8038 79.232C47.8038 78.816 47.7118 78.46 47.5278 78.164C47.3438 77.86 47.0918 77.632 46.7718 77.48C46.4598 77.32 46.1118 77.24 45.7278 77.24C45.1758 77.24 44.7038 77.416 44.3118 77.768C43.9278 78.12 43.7078 78.608 43.6518 79.232H47.8038ZM50.0356 79.7C50.0356 79.02 50.1716 78.428 50.4436 77.924C50.7156 77.412 51.0916 77.016 51.5716 76.736C52.0596 76.456 52.6156 76.316 53.2396 76.316C54.0476 76.316 54.7116 76.512 55.2316 76.904C55.7596 77.296 56.1076 77.84 56.2756 78.536H55.0996C54.9876 78.136 54.7676 77.82 54.4396 77.588C54.1196 77.356 53.7196 77.24 53.2396 77.24C52.6156 77.24 52.1116 77.456 51.7276 77.888C51.3436 78.312 51.1516 78.916 51.1516 79.7C51.1516 80.492 51.3436 81.104 51.7276 81.536C52.1116 81.968 52.6156 82.184 53.2396 82.184C53.7196 82.184 54.1196 82.072 54.4396 81.848C54.7596 81.624 54.9796 81.304 55.0996 80.888H56.2756C56.0996 81.56 55.7476 82.1 55.2196 82.508C54.6916 82.908 54.0316 83.108 53.2396 83.108C52.6156 83.108 52.0596 82.968 51.5716 82.688C51.0916 82.408 50.7156 82.012 50.4436 81.5C50.1716 80.988 50.0356 80.388 50.0356 79.7ZM61.067 76.304C61.563 76.304 62.011 76.412 62.411 76.628C62.811 76.836 63.123 77.152 63.347 77.576C63.579 78 63.695 78.516 63.695 79.124V83H62.615V79.28C62.615 78.624 62.451 78.124 62.123 77.78C61.795 77.428 61.347 77.252 60.779 77.252C60.203 77.252 59.743 77.432 59.399 77.792C59.063 78.152 58.895 78.676 58.895 79.364V83H57.803V74.12H58.895V77.36C59.111 77.024 59.407 76.764 59.783 76.58C60.167 76.396 60.595 76.304 61.067 76.304Z" fill="#055EB0"/>
    <path d="M42.5 28.25L33.75 42L42.5 55.75" stroke="#055EB0" stroke-width="2" stroke-linecap="round" stroke-linejoin="round"/>
    <path d="M57.5 28.25L66.25 42L57.5 55.75" stroke="#055EB0" stroke-width="2" stroke-linecap="round" stroke-linejoin="round"/>
    <path d="M8 1H92V-1H8V1ZM99 8V92H101V8H99ZM92 99H8V101H92V99ZM1 92V8H-1V92H1ZM8 99C4.13401 99 1 95.866 1 92H-1C-1 96.9706 3.02944 101 8 101V99ZM99 92C99 95.866 95.866 99 92 99V101C96.9706 101 101 96.9706 101 92H99ZM92 1C95.866 1 99 4.13401 99 8H101C101 3.02944 96.9706 -1 92 -1V1ZM8 -1C3.02944 -1 -1 3.02944 -1 8H1C1 4.13401 4.13401 1 8 1V-1Z" fill="#055EB0"/>
</svg>
