<svg width="100" height="100" viewBox="0 0 100 100" fill="none" xmlns="http://www.w3.org/2000/svg">
    <path d="M37.7964 74.636V75.524H35.5164V83H34.4244V75.524H32.1324V74.636H37.7964ZM40.303 77.492C40.495 77.116 40.767 76.824 41.119 76.616C41.479 76.408 41.915 76.304 42.427 76.304V77.432H42.139C40.915 77.432 40.303 78.096 40.303 79.424V83H39.211V76.424H40.303V77.492ZM43.3499 79.688C43.3499 79.016 43.4859 78.428 43.7579 77.924C44.0299 77.412 44.4019 77.016 44.8739 76.736C45.3539 76.456 45.8859 76.316 46.4699 76.316C47.0459 76.316 47.5459 76.44 47.9699 76.688C48.3939 76.936 48.7099 77.248 48.9179 77.624V76.424H50.0219V83H48.9179V81.776C48.7019 82.16 48.3779 82.48 47.9459 82.736C47.5219 82.984 47.0259 83.108 46.4579 83.108C45.8739 83.108 45.3459 82.964 44.8739 82.676C44.4019 82.388 44.0299 81.984 43.7579 81.464C43.4859 80.944 43.3499 80.352 43.3499 79.688ZM48.9179 79.7C48.9179 79.204 48.8179 78.772 48.6179 78.404C48.4179 78.036 48.1459 77.756 47.8019 77.564C47.4659 77.364 47.0939 77.264 46.6859 77.264C46.2779 77.264 45.9059 77.36 45.5699 77.552C45.2339 77.744 44.9659 78.024 44.7659 78.392C44.5659 78.76 44.4659 79.192 44.4659 79.688C44.4659 80.192 44.5659 80.632 44.7659 81.008C44.9659 81.376 45.2339 81.66 45.5699 81.86C45.9059 82.052 46.2779 82.148 46.6859 82.148C47.0939 82.148 47.4659 82.052 47.8019 81.86C48.1459 81.66 48.4179 81.376 48.6179 81.008C48.8179 80.632 48.9179 80.196 48.9179 79.7ZM54.3857 81.992L56.4257 76.424H57.5897L55.0097 83H53.7377L51.1577 76.424H52.3337L54.3857 81.992ZM64.7347 79.46C64.7347 79.668 64.7227 79.888 64.6987 80.12H59.4427C59.4827 80.768 59.7027 81.276 60.1027 81.644C60.5107 82.004 61.0027 82.184 61.5787 82.184C62.0507 82.184 62.4427 82.076 62.7547 81.86C63.0747 81.636 63.2987 81.34 63.4267 80.972H64.6027C64.4267 81.604 64.0747 82.12 63.5467 82.52C63.0187 82.912 62.3627 83.108 61.5787 83.108C60.9547 83.108 60.3947 82.968 59.8987 82.688C59.4107 82.408 59.0267 82.012 58.7467 81.5C58.4667 80.98 58.3267 80.38 58.3267 79.7C58.3267 79.02 58.4627 78.424 58.7347 77.912C59.0067 77.4 59.3867 77.008 59.8747 76.736C60.3707 76.456 60.9387 76.316 61.5787 76.316C62.2027 76.316 62.7547 76.452 63.2347 76.724C63.7147 76.996 64.0827 77.372 64.3387 77.852C64.6027 78.324 64.7347 78.86 64.7347 79.46ZM63.6067 79.232C63.6067 78.816 63.5147 78.46 63.3307 78.164C63.1467 77.86 62.8947 77.632 62.5747 77.48C62.2627 77.32 61.9147 77.24 61.5307 77.24C60.9787 77.24 60.5067 77.416 60.1147 77.768C59.7307 78.12 59.5107 78.608 59.4547 79.232H63.6067ZM67.3384 74.12V83H66.2464V74.12H67.3384Z" fill="#055EB0"/>
    <path d="M33.75 55.75H56.25" stroke="#055EB0" stroke-width="2" stroke-linecap="round" stroke-linejoin="round"/>
    <path d="M32.6448 43.9328L38.5347 49.4546C39.3195 50.1903 40.3206 50.6533 41.3893 50.7748C42.4581 50.8964 43.5376 50.6701 44.4675 50.1294L68.125 36.3751L65.2126 32.8155C64.457 31.8921 63.3961 31.2692 62.2216 31.0595C61.047 30.8498 59.8361 31.0671 58.8077 31.672L51.875 35.7501L42.5 32.6251L39.922 33.7299C39.7291 33.8126 39.5602 33.9425 39.4307 34.1076C39.3012 34.2727 39.2154 34.4678 39.1812 34.6748C39.1469 34.8819 39.1653 35.0942 39.2347 35.2922C39.3041 35.4902 39.4222 35.6676 39.5782 35.808L44.375 40.1251L40 42.6251L35.625 40.7501L33.0074 41.8719C32.8165 41.9537 32.649 42.0818 32.52 42.2446C32.391 42.4074 32.3046 42.5998 32.2687 42.8043C32.2327 43.0088 32.2482 43.2191 32.3139 43.4162C32.3796 43.6132 32.4933 43.7907 32.6448 43.9328V43.9328Z" stroke="#055EB0" stroke-width="2" stroke-linecap="round" stroke-linejoin="round"/>
    <path d="M8 1H92V-1H8V1ZM99 8V92H101V8H99ZM92 99H8V101H92V99ZM1 92V8H-1V92H1ZM8 99C4.13401 99 1 95.866 1 92H-1C-1 96.9706 3.02944 101 8 101V99ZM99 92C99 95.866 95.866 99 92 99V101C96.9706 101 101 96.9706 101 92H99ZM92 1C95.866 1 99 4.13401 99 8H101C101 3.02944 96.9706 -1 92 -1V1ZM8 -1C3.02944 -1 -1 3.02944 -1 8H1C1 4.13401 4.13401 1 8 1V-1Z" fill="#055EB0"/>
</svg>
